<svg width="35" height="44" viewBox="0 0 35 44" fill="none" xmlns="http://www.w3.org/2000/svg">
<path d="M24 11V2H22V11C22 12.1046 22.8954 13 24 13H33V11H24ZM32 43H3C1.89543 43 1 42.1046 1 41V3C1 1.89543 1.89543 1 3 1H23.1716C23.4368 1 23.6911 1.10536 23.8787 1.29289L33.7071 11.1213C33.8946 11.3089 34 11.5632 34 11.8284V41C34 42.1046 33.1046 43 32 43Z" stroke="#AEB9D0" stroke-width="2" stroke-linejoin="round"/>
<path d="M17.1949 27.676C9.10534 30.9117 7.03371 32.278 8.45006 34.3668C9.68303 36.1852 12.728 31.4799 14.8607 24.9715C16.9934 18.463 18.7184 12.5899 16.3145 12.7978C13.4376 13.0466 15.8294 18.104 19.2491 23.3622C22.6688 28.6204 24.9128 29.4954 26.5538 28.0603C27.9511 26.4792 25.9832 24.624 17.1949 27.676Z" stroke="#AEB9D0" stroke-width="2" stroke-linejoin="round"/>
</svg>
