<svg width="122" height="145" viewBox="0 0 122 145" fill="none" xmlns="http://www.w3.org/2000/svg"><path d="M10 108.547h101.395c5.247 0 9.5 4.253 9.5 9.5v10.595H.5v-10.595c0-5.247 4.2533-9.5 9.5-9.5ZM60.6973 144.238c-11.6576 0-21.7575-6.303-26.7628-15.509H87.46c-5.0052 9.206-15.1051 15.509-26.7627 15.509Z" stroke="#212730"/><mask id="a" fill="#fff"><path fill-rule="evenodd" clip-rule="evenodd" d="M51.5017 9.93295c0-5.07915 4.1175-9.196622 9.1966-9.196622 5.0792 0 9.1966 4.117472 9.1966 9.196622V20.1597C88.5828 21.844 103.81 36.4318 106.006 55.3963l6.188 53.4467H9.19238l5.93552-53.275c2.1303-19.1216 17.5114-33.8453 36.3738-35.4295V9.93295Zm9.1963-2.77856c-1.5238 0-2.759 1.23524-2.759 2.75898v7.32283c0 1.5237 1.2352 2.7589 2.759 2.7589 1.5237 0 2.7589-1.2352 2.7589-2.7589V9.91337c0-1.52374-1.2352-2.75898-2.7589-2.75898Z"/></mask><path d="M69.8949 20.1597h-1v.9139l.9103.082.0897-.9959Zm36.1111 35.2366-.993.115.993-.115Zm6.188 53.4467v1h1.123l-.129-1.115-.994.115Zm-103.00162 0-.99385-.111-.12375 1.111h1.1176v-1Zm5.93552-53.275.9938.1107-.9938-.1107Zm36.3738-35.4295.0837.9964.9163-.0769v-.9195h-1ZM60.6983-.263672c-5.6314 0-10.1966 4.565182-10.1966 10.196622h2c0-4.52687 3.6698-8.19662 8.1966-8.19662V-.263672ZM70.8949 9.93295c0-5.63144-4.5651-10.196622-10.1966-10.196622V1.73633c4.5269 0 8.1966 3.66975 8.1966 8.19662h2Zm0 10.22675V9.93295h-2V20.1597h2Zm36.1041 35.1216c-2.25-19.439-17.8584-34.3911-37.0143-36.1176l-.1795 1.9919c18.2199 1.6422 33.0668 15.8657 35.2078 34.3557l1.986-.23Zm6.189 53.4467-6.189-53.4467-1.986.23 6.188 53.4467 1.987-.23ZM9.19238 109.843H112.194v-2H9.19238v2ZM14.134 55.4572 8.19853 108.732l1.98767.221 5.9355-53.2743-1.9877-.2215ZM51.418 19.142c-19.3347 1.6239-35.1003 16.7153-37.284 36.3152l1.9877.2215c2.0771-18.6432 17.0737-32.9991 35.4637-34.5438l-.1674-1.9929Zm-.9163-9.20905V20.1385h2V9.93295h-2Zm8.4373-.01958c0-.97146.7875-1.75898 1.759-1.75898v-2c-2.0761 0-3.759 1.68295-3.759 3.75898h2Zm0 7.32283V9.91337h-2v7.32283h2Zm1.759 1.7589c-.9715 0-1.759-.7875-1.759-1.7589h-2c0 2.076 1.6829 3.7589 3.759 3.7589v-2Zm1.7589-1.7589c0 .9714-.7875 1.7589-1.7589 1.7589v2c2.076 0 3.7589-1.6829 3.7589-3.7589h-2Zm0-7.32283v7.32283h2V9.91337h-2ZM60.698 8.15439c.9714 0 1.7589.78752 1.7589 1.75898h2c0-2.07603-1.6829-3.75898-3.7589-3.75898v2Z" fill="#212730" mask="url(#a)"/></svg>