<svg width="36" height="30" viewBox="0 0 36 30" xmlns="http://www.w3.org/2000/svg">
  <path d="M36 4.57252h-9L25.5.00002963h-15L8.99997 4.57252H0V30h36V4.57252ZM18 23.1892c-3.6834 0-6.6667-2.9232-6.6667-6.5322 0-3.609 2.9833-6.5321 6.6667-6.5321 3.6833 0 6.6666 2.9231 6.6666 6.5321S21.6833 23.1892 18 23.1892Zm-4-6.5322c0 1.0395.4214 2.0364 1.1715 2.7714.7502.735 1.7676 1.1479 2.8285 1.1479 1.0608 0 2.0783-.4129 2.8284-1.1479C21.5785 18.6934 22 17.6965 22 16.657c0-1.0394-.4215-2.0363-1.1716-2.7713-.7501-.735-1.7676-1.148-2.8284-1.148-1.0609 0-2.0783.413-2.8285 1.148C14.4214 14.6207 14 15.6176 14 16.657Z"/>
</svg>
