<svg width="170" height="134" viewBox="0 0 170 134" fill="none" xmlns="http://www.w3.org/2000/svg">
<path d="M2.15859e-10 1C-2.73535e-06 0.868136 0.0259954 0.737574 0.0764902 0.615828C0.126985 0.494083 0.200982 0.383558 0.294225 0.290616C0.387467 0.197675 0.498108 0.124153 0.619786 0.0742804C0.741465 0.0244077 0.871779 -0.000829921 1.00322 2.08129e-05C1.26758 2.08129e-05 1.52112 0.105375 1.70805 0.292907C1.89499 0.48044 2 0.734789 2 1C2 1.26521 1.89499 1.51956 1.70805 1.70709C1.52112 1.89463 1.26758 1.99998 1.00322 1.99998C0.871779 2.00083 0.741465 1.97559 0.619786 1.92572C0.498108 1.87585 0.387467 1.80233 0.294225 1.70938C0.200982 1.61644 0.126985 1.50592 0.0764902 1.38417C0.0259954 1.26243 -2.73535e-06 1.13186 2.15859e-10 1Z" fill="#858FA3"/>
<path d="M1 14C1.55229 14 2 13.5523 2 13C2 12.4477 1.55229 12 1 12C0.447715 12 0 12.4477 0 13C0 13.5523 0.447715 14 1 14Z" fill="#858FA3"/>
<path d="M0 25.0032C0 24.7371 0.105698 24.482 0.293837 24.2938C0.481976 24.1057 0.737149 24 1.00322 24C1.26817 24.0017 1.52169 24.1081 1.70844 24.2961C1.8952 24.4841 2.00001 24.7383 2 25.0032C1.99831 25.2671 1.89276 25.5196 1.70619 25.7062C1.51962 25.8928 1.26706 25.9983 1.00322 26C0.73826 26 0.484055 25.8952 0.296099 25.7084C0.108143 25.5217 0.00169845 25.2682 0 25.0032Z" fill="#858FA3"/>
<path d="M0 37.0032C0 36.7371 0.105698 36.482 0.293837 36.2938C0.481976 36.1057 0.737149 36 1.00322 36C1.26817 36.0017 1.52169 36.1081 1.70844 36.2961C1.8952 36.4841 2.00001 36.7383 2 37.0032C1.99831 37.2671 1.89276 37.5196 1.70619 37.7062C1.51962 37.8928 1.26706 37.9983 1.00322 38C0.73826 38 0.484055 37.8952 0.296099 37.7084C0.108143 37.5217 0.00169845 37.2682 0 37.0032Z" fill="#858FA3"/>
<path d="M2.15859e-10 49C-2.73535e-06 48.8681 0.0259954 48.7376 0.0764902 48.6158C0.126985 48.4941 0.200982 48.3836 0.294225 48.2906C0.387467 48.1977 0.498108 48.1242 0.619786 48.0743C0.741465 48.0244 0.871779 47.9992 1.00322 48C1.26758 48 1.52112 48.1054 1.70805 48.2929C1.89499 48.4804 2 48.7348 2 49C2 49.2652 1.89499 49.5196 1.70805 49.7071C1.52112 49.8946 1.26758 50 1.00322 50C0.871779 50.0008 0.741465 49.9756 0.619786 49.9257C0.498108 49.8758 0.387467 49.8023 0.294225 49.7094C0.200982 49.6164 0.126985 49.5059 0.0764902 49.3842C0.0259954 49.2624 -2.73535e-06 49.1319 2.15859e-10 49Z" fill="#858FA3"/>
<path d="M0.000187101 60.9904C0.000184366 60.8598 0.0261777 60.7305 0.076663 60.6099C0.127148 60.4893 0.201132 60.3799 0.294357 60.2878C0.387582 60.1958 0.498202 60.123 0.619858 60.0736C0.741514 60.0242 0.871803 59.9992 1.00322 60C1.26753 60 1.52102 60.1044 1.70792 60.2901C1.89482 60.4758 1.99981 60.7277 1.99981 60.9904C2.00238 61.1221 1.9785 61.2529 1.92956 61.3753C1.88063 61.4977 1.80763 61.6091 1.71483 61.7032C1.62203 61.7972 1.51129 61.8718 1.3891 61.9228C1.26692 61.9738 1.13573 62 1.00322 62C0.870164 62.0009 0.73828 61.9752 0.615345 61.9247C0.492409 61.8741 0.38091 61.7995 0.287425 61.7054C0.193941 61.6114 0.120364 61.4996 0.0710315 61.3768C0.0216995 61.254 -0.00239113 61.1226 0.000187101 60.9904Z" fill="#858FA3"/>
<path d="M1 74C1.55229 74 2 73.5523 2 73C2 72.4477 1.55229 72 1 72C0.447715 72 0 72.4477 0 73C0 73.5523 0.447715 74 1 74Z" fill="#858FA3"/>
<path d="M0 84.9968C0.00169845 84.7318 0.108143 84.4783 0.296099 84.2916C0.484055 84.1048 0.73826 84 1.00322 84C1.26706 84.0017 1.51962 84.1072 1.70619 84.2938C1.89276 84.4804 1.99831 84.7329 2 84.9968C2.00001 85.2617 1.8952 85.5159 1.70844 85.7039C1.52169 85.8919 1.26817 85.9983 1.00322 86C0.737149 86 0.481976 85.8943 0.293837 85.7062C0.105698 85.518 0 85.2629 0 84.9968Z" fill="#858FA3"/>
<path d="M0 97.013C0 96.7443 0.105698 96.4867 0.293837 96.2967C0.481976 96.1067 0.737149 96 1.00322 96C1.26817 96.0017 1.52169 96.1092 1.70844 96.299C1.8952 96.4888 2.00001 96.7454 2 97.013C1.99332 97.276 1.88557 97.5261 1.69953 97.7103C1.51349 97.8945 1.26378 97.9984 1.00322 98C0.741547 98.0001 0.490194 97.8969 0.302777 97.7125C0.115359 97.5282 0.00670952 97.2771 0 97.013Z" fill="#858FA3"/>
<path d="M2.15859e-10 109C-2.73535e-06 108.868 0.0259954 108.738 0.0764902 108.616C0.126985 108.494 0.200982 108.384 0.294225 108.291C0.387467 108.198 0.498108 108.124 0.619786 108.074C0.741465 108.024 0.871779 107.999 1.00322 108C1.26758 108 1.52112 108.105 1.70805 108.293C1.89499 108.48 2 108.735 2 109C2 109.265 1.89499 109.52 1.70805 109.707C1.52112 109.895 1.26758 110 1.00322 110C0.871779 110.001 0.741465 109.976 0.619786 109.926C0.498108 109.876 0.387467 109.802 0.294225 109.709C0.200982 109.616 0.126985 109.506 0.0764902 109.384C0.0259954 109.262 -2.73535e-06 109.132 2.15859e-10 109Z" fill="#858FA3"/>
<path d="M2.15859e-10 121C-2.73535e-06 120.868 0.0259954 120.738 0.0764902 120.616C0.126985 120.494 0.200982 120.384 0.294225 120.291C0.387467 120.198 0.498108 120.124 0.619786 120.074C0.741465 120.024 0.871779 119.999 1.00322 120C1.26758 120 1.52112 120.105 1.70805 120.293C1.89499 120.48 2 120.735 2 121C2 121.131 1.97422 121.261 1.92412 121.383C1.87403 121.504 1.80061 121.614 1.70805 121.707C1.61549 121.8 1.5056 121.874 1.38467 121.924C1.26373 121.974 1.13412 122 1.00322 122C0.871779 122.001 0.741465 121.976 0.619786 121.926C0.498108 121.876 0.387467 121.802 0.294225 121.709C0.200982 121.616 0.126985 121.506 0.0764902 121.384C0.0259954 121.262 -2.73535e-06 121.132 2.15859e-10 121Z" fill="#858FA3"/>
<path d="M1 134C1.55229 134 2 133.552 2 133C2 132.448 1.55229 132 1 132C0.447715 132 0 132.448 0 133C0 133.552 0.447715 134 1 134Z" fill="#858FA3"/>
<path d="M12 1C12 0.868136 12.026 0.737574 12.0765 0.615828C12.127 0.494083 12.201 0.383558 12.2942 0.290616C12.3875 0.197675 12.4981 0.124153 12.6198 0.0742804C12.7415 0.0244077 12.8718 -0.000829921 13.0032 2.08129e-05C13.2676 2.08129e-05 13.5211 0.105375 13.7081 0.292907C13.895 0.48044 14 0.734789 14 1C14 1.26521 13.895 1.51956 13.7081 1.70709C13.5211 1.89463 13.2676 1.99998 13.0032 1.99998C12.8718 2.00083 12.7415 1.97559 12.6198 1.92572C12.4981 1.87585 12.3875 1.80233 12.2942 1.70938C12.201 1.61644 12.127 1.50592 12.0765 1.38417C12.026 1.26243 12 1.13186 12 1Z" fill="#858FA3"/>
<path d="M13 14C13.5523 14 14 13.5523 14 13C14 12.4477 13.5523 12 13 12C12.4477 12 12 12.4477 12 13C12 13.5523 12.4477 14 13 14Z" fill="#858FA3"/>
<path d="M12 25.0032C12 24.7371 12.1057 24.482 12.2938 24.2938C12.482 24.1057 12.7371 24 13.0032 24C13.2682 24.0017 13.5217 24.1081 13.7084 24.2961C13.8952 24.4841 14 24.7383 14 25.0032C13.9983 25.2671 13.8928 25.5196 13.7062 25.7062C13.5196 25.8928 13.2671 25.9983 13.0032 26C12.7383 26 12.4841 25.8952 12.2961 25.7084C12.1081 25.5217 12.0017 25.2682 12 25.0032Z" fill="#858FA3"/>
<path d="M12 37.0032C12 36.7371 12.1057 36.482 12.2938 36.2938C12.482 36.1057 12.7371 36 13.0032 36C13.2682 36.0017 13.5217 36.1081 13.7084 36.2961C13.8952 36.4841 14 36.7383 14 37.0032C13.9983 37.2671 13.8928 37.5196 13.7062 37.7062C13.5196 37.8928 13.2671 37.9983 13.0032 38C12.7383 38 12.4841 37.8952 12.2961 37.7084C12.1081 37.5217 12.0017 37.2682 12 37.0032Z" fill="#858FA3"/>
<path d="M12 49C12 48.8681 12.026 48.7376 12.0765 48.6158C12.127 48.4941 12.201 48.3836 12.2942 48.2906C12.3875 48.1977 12.4981 48.1242 12.6198 48.0743C12.7415 48.0244 12.8718 47.9992 13.0032 48C13.2676 48 13.5211 48.1054 13.7081 48.2929C13.895 48.4804 14 48.7348 14 49C14 49.2652 13.895 49.5196 13.7081 49.7071C13.5211 49.8946 13.2676 50 13.0032 50C12.8718 50.0008 12.7415 49.9756 12.6198 49.9257C12.4981 49.8758 12.3875 49.8023 12.2942 49.7094C12.201 49.6164 12.127 49.5059 12.0765 49.3842C12.026 49.2624 12 49.1319 12 49Z" fill="#858FA3"/>
<path d="M12.0002 60.9904C12.0002 60.8598 12.0262 60.7305 12.0767 60.6099C12.1271 60.4893 12.2011 60.3799 12.2944 60.2878C12.3876 60.1958 12.4982 60.123 12.6199 60.0736C12.7415 60.0242 12.8718 59.9992 13.0032 60C13.2675 60 13.521 60.1044 13.7079 60.2901C13.8948 60.4758 13.9998 60.7277 13.9998 60.9904C14.0024 61.1221 13.9785 61.2529 13.9296 61.3753C13.8806 61.4977 13.8076 61.6091 13.7148 61.7032C13.622 61.7972 13.5113 61.8718 13.3891 61.9228C13.2669 61.9738 13.1357 62 13.0032 62C12.8702 62.0009 12.7383 61.9752 12.6153 61.9247C12.4924 61.8741 12.3809 61.7995 12.2874 61.7054C12.1939 61.6114 12.1204 61.4996 12.071 61.3768C12.0217 61.254 11.9976 61.1226 12.0002 60.9904Z" fill="#858FA3"/>
<path d="M13 74C13.5523 74 14 73.5523 14 73C14 72.4477 13.5523 72 13 72C12.4477 72 12 72.4477 12 73C12 73.5523 12.4477 74 13 74Z" fill="#858FA3"/>
<path d="M12 84.9968C12.0017 84.7318 12.1081 84.4783 12.2961 84.2916C12.4841 84.1048 12.7383 84 13.0032 84C13.2671 84.0017 13.5196 84.1072 13.7062 84.2938C13.8928 84.4804 13.9983 84.7329 14 84.9968C14 85.2617 13.8952 85.5159 13.7084 85.7039C13.5217 85.8919 13.2682 85.9983 13.0032 86C12.7371 86 12.482 85.8943 12.2938 85.7062C12.1057 85.518 12 85.2629 12 84.9968Z" fill="#858FA3"/>
<path d="M12 97.013C12 96.7443 12.1057 96.4867 12.2938 96.2967C12.482 96.1067 12.7371 96 13.0032 96C13.2682 96.0017 13.5217 96.1092 13.7084 96.299C13.8952 96.4888 14 96.7454 14 97.013C13.9933 97.276 13.8856 97.5261 13.6995 97.7103C13.5135 97.8945 13.2638 97.9984 13.0032 98C12.7415 98.0001 12.4902 97.8969 12.3028 97.7125C12.1154 97.5282 12.0067 97.2771 12 97.013Z" fill="#858FA3"/>
<path d="M12 109C12 108.868 12.026 108.738 12.0765 108.616C12.127 108.494 12.201 108.384 12.2942 108.291C12.3875 108.198 12.4981 108.124 12.6198 108.074C12.7415 108.024 12.8718 107.999 13.0032 108C13.2676 108 13.5211 108.105 13.7081 108.293C13.895 108.48 14 108.735 14 109C14 109.265 13.895 109.52 13.7081 109.707C13.5211 109.895 13.2676 110 13.0032 110C12.8718 110.001 12.7415 109.976 12.6198 109.926C12.4981 109.876 12.3875 109.802 12.2942 109.709C12.201 109.616 12.127 109.506 12.0765 109.384C12.026 109.262 12 109.132 12 109Z" fill="#858FA3"/>
<path d="M12 121C12 120.868 12.026 120.738 12.0765 120.616C12.127 120.494 12.201 120.384 12.2942 120.291C12.3875 120.198 12.4981 120.124 12.6198 120.074C12.7415 120.024 12.8718 119.999 13.0032 120C13.2676 120 13.5211 120.105 13.7081 120.293C13.895 120.48 14 120.735 14 121C14 121.131 13.9742 121.261 13.9241 121.383C13.874 121.504 13.8006 121.614 13.7081 121.707C13.6155 121.8 13.5056 121.874 13.3847 121.924C13.2637 121.974 13.1341 122 13.0032 122C12.8718 122.001 12.7415 121.976 12.6198 121.926C12.4981 121.876 12.3875 121.802 12.2942 121.709C12.201 121.616 12.127 121.506 12.0765 121.384C12.026 121.262 12 121.132 12 121Z" fill="#858FA3"/>
<path d="M13 134C13.5523 134 14 133.552 14 133C14 132.448 13.5523 132 13 132C12.4477 132 12 132.448 12 133C12 133.552 12.4477 134 13 134Z" fill="#858FA3"/>
<path d="M24 1C24 0.868136 24.026 0.737574 24.0765 0.615828C24.127 0.494083 24.201 0.383558 24.2942 0.290616C24.3875 0.197675 24.4981 0.124153 24.6198 0.0742804C24.7415 0.0244077 24.8718 -0.000829921 25.0032 2.08129e-05C25.2676 2.08129e-05 25.5211 0.105375 25.7081 0.292907C25.895 0.48044 26 0.734789 26 1C26 1.26521 25.895 1.51956 25.7081 1.70709C25.5211 1.89463 25.2676 1.99998 25.0032 1.99998C24.8718 2.00083 24.7415 1.97559 24.6198 1.92572C24.4981 1.87585 24.3875 1.80233 24.2942 1.70938C24.201 1.61644 24.127 1.50592 24.0765 1.38417C24.026 1.26243 24 1.13186 24 1Z" fill="#858FA3"/>
<path d="M25 14C25.5523 14 26 13.5523 26 13C26 12.4477 25.5523 12 25 12C24.4477 12 24 12.4477 24 13C24 13.5523 24.4477 14 25 14Z" fill="#858FA3"/>
<path d="M24 25.0032C24 24.7371 24.1057 24.482 24.2938 24.2938C24.482 24.1057 24.7371 24 25.0032 24C25.2682 24.0017 25.5217 24.1081 25.7084 24.2961C25.8952 24.4841 26 24.7383 26 25.0032C25.9983 25.2671 25.8928 25.5196 25.7062 25.7062C25.5196 25.8928 25.2671 25.9983 25.0032 26C24.7383 26 24.4841 25.8952 24.2961 25.7084C24.1081 25.5217 24.0017 25.2682 24 25.0032Z" fill="#858FA3"/>
<path d="M24 37.0032C24 36.7371 24.1057 36.482 24.2938 36.2938C24.482 36.1057 24.7371 36 25.0032 36C25.2682 36.0017 25.5217 36.1081 25.7084 36.2961C25.8952 36.4841 26 36.7383 26 37.0032C25.9983 37.2671 25.8928 37.5196 25.7062 37.7062C25.5196 37.8928 25.2671 37.9983 25.0032 38C24.7383 38 24.4841 37.8952 24.2961 37.7084C24.1081 37.5217 24.0017 37.2682 24 37.0032Z" fill="#858FA3"/>
<path d="M24 49C24 48.8681 24.026 48.7376 24.0765 48.6158C24.127 48.4941 24.201 48.3836 24.2942 48.2906C24.3875 48.1977 24.4981 48.1242 24.6198 48.0743C24.7415 48.0244 24.8718 47.9992 25.0032 48C25.2676 48 25.5211 48.1054 25.7081 48.2929C25.895 48.4804 26 48.7348 26 49C26 49.2652 25.895 49.5196 25.7081 49.7071C25.5211 49.8946 25.2676 50 25.0032 50C24.8718 50.0008 24.7415 49.9756 24.6198 49.9257C24.4981 49.8758 24.3875 49.8023 24.2942 49.7094C24.201 49.6164 24.127 49.5059 24.0765 49.3842C24.026 49.2624 24 49.1319 24 49Z" fill="#858FA3"/>
<path d="M24.0002 60.9904C24.0002 60.8598 24.0262 60.7305 24.0767 60.6099C24.1271 60.4893 24.2011 60.3799 24.2944 60.2878C24.3876 60.1958 24.4982 60.123 24.6199 60.0736C24.7415 60.0242 24.8718 59.9992 25.0032 60C25.2675 60 25.521 60.1044 25.7079 60.2901C25.8948 60.4758 25.9998 60.7277 25.9998 60.9904C26.0024 61.1221 25.9785 61.2529 25.9296 61.3753C25.8806 61.4977 25.8076 61.6091 25.7148 61.7032C25.622 61.7972 25.5113 61.8718 25.3891 61.9228C25.2669 61.9738 25.1357 62 25.0032 62C24.8702 62.0009 24.7383 61.9752 24.6153 61.9247C24.4924 61.8741 24.3809 61.7995 24.2874 61.7054C24.1939 61.6114 24.1204 61.4996 24.071 61.3768C24.0217 61.254 23.9976 61.1226 24.0002 60.9904Z" fill="#858FA3"/>
<path d="M25 74C25.5523 74 26 73.5523 26 73C26 72.4477 25.5523 72 25 72C24.4477 72 24 72.4477 24 73C24 73.5523 24.4477 74 25 74Z" fill="#858FA3"/>
<path d="M24 84.9968C24.0017 84.7318 24.1081 84.4783 24.2961 84.2916C24.4841 84.1048 24.7383 84 25.0032 84C25.2671 84.0017 25.5196 84.1072 25.7062 84.2938C25.8928 84.4804 25.9983 84.7329 26 84.9968C26 85.2617 25.8952 85.5159 25.7084 85.7039C25.5217 85.8919 25.2682 85.9983 25.0032 86C24.7371 86 24.482 85.8943 24.2938 85.7062C24.1057 85.518 24 85.2629 24 84.9968Z" fill="#858FA3"/>
<path d="M24 97.013C24 96.7443 24.1057 96.4867 24.2938 96.2967C24.482 96.1067 24.7371 96 25.0032 96C25.2682 96.0017 25.5217 96.1092 25.7084 96.299C25.8952 96.4888 26 96.7454 26 97.013C25.9933 97.276 25.8856 97.5261 25.6995 97.7103C25.5135 97.8945 25.2638 97.9984 25.0032 98C24.7415 98.0001 24.4902 97.8969 24.3028 97.7125C24.1154 97.5282 24.0067 97.2771 24 97.013Z" fill="#858FA3"/>
<path d="M24 109C24 108.868 24.026 108.738 24.0765 108.616C24.127 108.494 24.201 108.384 24.2942 108.291C24.3875 108.198 24.4981 108.124 24.6198 108.074C24.7415 108.024 24.8718 107.999 25.0032 108C25.2676 108 25.5211 108.105 25.7081 108.293C25.895 108.48 26 108.735 26 109C26 109.265 25.895 109.52 25.7081 109.707C25.5211 109.895 25.2676 110 25.0032 110C24.8718 110.001 24.7415 109.976 24.6198 109.926C24.4981 109.876 24.3875 109.802 24.2942 109.709C24.201 109.616 24.127 109.506 24.0765 109.384C24.026 109.262 24 109.132 24 109Z" fill="#858FA3"/>
<path d="M24 121C24 120.868 24.026 120.738 24.0765 120.616C24.127 120.494 24.201 120.384 24.2942 120.291C24.3875 120.198 24.4981 120.124 24.6198 120.074C24.7415 120.024 24.8718 119.999 25.0032 120C25.2676 120 25.5211 120.105 25.7081 120.293C25.895 120.48 26 120.735 26 121C26 121.131 25.9742 121.261 25.9241 121.383C25.874 121.504 25.8006 121.614 25.7081 121.707C25.6155 121.8 25.5056 121.874 25.3847 121.924C25.2637 121.974 25.1341 122 25.0032 122C24.8718 122.001 24.7415 121.976 24.6198 121.926C24.4981 121.876 24.3875 121.802 24.2942 121.709C24.201 121.616 24.127 121.506 24.0765 121.384C24.026 121.262 24 121.132 24 121Z" fill="#858FA3"/>
<path d="M25 134C25.5523 134 26 133.552 26 133C26 132.448 25.5523 132 25 132C24.4477 132 24 132.448 24 133C24 133.552 24.4477 134 25 134Z" fill="#858FA3"/>
<path d="M36 1C36 0.868136 36.026 0.737574 36.0765 0.615828C36.127 0.494083 36.201 0.383558 36.2942 0.290616C36.3875 0.197675 36.4981 0.124153 36.6198 0.0742804C36.7415 0.0244077 36.8718 -0.000829921 37.0032 2.08129e-05C37.2676 2.08129e-05 37.5211 0.105375 37.7081 0.292907C37.895 0.48044 38 0.734789 38 1C38 1.26521 37.895 1.51956 37.7081 1.70709C37.5211 1.89463 37.2676 1.99998 37.0032 1.99998C36.8718 2.00083 36.7415 1.97559 36.6198 1.92572C36.4981 1.87585 36.3875 1.80233 36.2942 1.70938C36.201 1.61644 36.127 1.50592 36.0765 1.38417C36.026 1.26243 36 1.13186 36 1Z" fill="#858FA3"/>
<path d="M37 14C37.5523 14 38 13.5523 38 13C38 12.4477 37.5523 12 37 12C36.4477 12 36 12.4477 36 13C36 13.5523 36.4477 14 37 14Z" fill="#858FA3"/>
<path d="M36 25.0032C36 24.7371 36.1057 24.482 36.2938 24.2938C36.482 24.1057 36.7371 24 37.0032 24C37.2682 24.0017 37.5217 24.1081 37.7084 24.2961C37.8952 24.4841 38 24.7383 38 25.0032C37.9983 25.2671 37.8928 25.5196 37.7062 25.7062C37.5196 25.8928 37.2671 25.9983 37.0032 26C36.7383 26 36.4841 25.8952 36.2961 25.7084C36.1081 25.5217 36.0017 25.2682 36 25.0032Z" fill="#858FA3"/>
<path d="M36 37.0032C36 36.7371 36.1057 36.482 36.2938 36.2938C36.482 36.1057 36.7371 36 37.0032 36C37.2682 36.0017 37.5217 36.1081 37.7084 36.2961C37.8952 36.4841 38 36.7383 38 37.0032C37.9983 37.2671 37.8928 37.5196 37.7062 37.7062C37.5196 37.8928 37.2671 37.9983 37.0032 38C36.7383 38 36.4841 37.8952 36.2961 37.7084C36.1081 37.5217 36.0017 37.2682 36 37.0032Z" fill="#858FA3"/>
<path d="M36 49C36 48.8681 36.026 48.7376 36.0765 48.6158C36.127 48.4941 36.201 48.3836 36.2942 48.2906C36.3875 48.1977 36.4981 48.1242 36.6198 48.0743C36.7415 48.0244 36.8718 47.9992 37.0032 48C37.2676 48 37.5211 48.1054 37.7081 48.2929C37.895 48.4804 38 48.7348 38 49C38 49.2652 37.895 49.5196 37.7081 49.7071C37.5211 49.8946 37.2676 50 37.0032 50C36.8718 50.0008 36.7415 49.9756 36.6198 49.9257C36.4981 49.8758 36.3875 49.8023 36.2942 49.7094C36.201 49.6164 36.127 49.5059 36.0765 49.3842C36.026 49.2624 36 49.1319 36 49Z" fill="#858FA3"/>
<path d="M36.0002 60.9904C36.0002 60.8598 36.0262 60.7305 36.0767 60.6099C36.1271 60.4893 36.2011 60.3799 36.2944 60.2878C36.3876 60.1958 36.4982 60.123 36.6199 60.0736C36.7415 60.0242 36.8718 59.9992 37.0032 60C37.2675 60 37.521 60.1044 37.7079 60.2901C37.8948 60.4758 37.9998 60.7277 37.9998 60.9904C38.0024 61.1221 37.9785 61.2529 37.9296 61.3753C37.8806 61.4977 37.8076 61.6091 37.7148 61.7032C37.622 61.7972 37.5113 61.8718 37.3891 61.9228C37.2669 61.9738 37.1357 62 37.0032 62C36.8702 62.0009 36.7383 61.9752 36.6153 61.9247C36.4924 61.8741 36.3809 61.7995 36.2874 61.7054C36.1939 61.6114 36.1204 61.4996 36.071 61.3768C36.0217 61.254 35.9976 61.1226 36.0002 60.9904Z" fill="#858FA3"/>
<path d="M37 74C37.5523 74 38 73.5523 38 73C38 72.4477 37.5523 72 37 72C36.4477 72 36 72.4477 36 73C36 73.5523 36.4477 74 37 74Z" fill="#858FA3"/>
<path d="M36 84.9968C36.0017 84.7318 36.1081 84.4783 36.2961 84.2916C36.4841 84.1048 36.7383 84 37.0032 84C37.2671 84.0017 37.5196 84.1072 37.7062 84.2938C37.8928 84.4804 37.9983 84.7329 38 84.9968C38 85.2617 37.8952 85.5159 37.7084 85.7039C37.5217 85.8919 37.2682 85.9983 37.0032 86C36.7371 86 36.482 85.8943 36.2938 85.7062C36.1057 85.518 36 85.2629 36 84.9968Z" fill="#858FA3"/>
<path d="M36 97.013C36 96.7443 36.1057 96.4867 36.2938 96.2967C36.482 96.1067 36.7371 96 37.0032 96C37.2682 96.0017 37.5217 96.1092 37.7084 96.299C37.8952 96.4888 38 96.7454 38 97.013C37.9933 97.276 37.8856 97.5261 37.6995 97.7103C37.5135 97.8945 37.2638 97.9984 37.0032 98C36.7415 98.0001 36.4902 97.8969 36.3028 97.7125C36.1154 97.5282 36.0067 97.2771 36 97.013Z" fill="#858FA3"/>
<path d="M36 109C36 108.868 36.026 108.738 36.0765 108.616C36.127 108.494 36.201 108.384 36.2942 108.291C36.3875 108.198 36.4981 108.124 36.6198 108.074C36.7415 108.024 36.8718 107.999 37.0032 108C37.2676 108 37.5211 108.105 37.7081 108.293C37.895 108.48 38 108.735 38 109C38 109.265 37.895 109.52 37.7081 109.707C37.5211 109.895 37.2676 110 37.0032 110C36.8718 110.001 36.7415 109.976 36.6198 109.926C36.4981 109.876 36.3875 109.802 36.2942 109.709C36.201 109.616 36.127 109.506 36.0765 109.384C36.026 109.262 36 109.132 36 109Z" fill="#858FA3"/>
<path d="M36 121C36 120.868 36.026 120.738 36.0765 120.616C36.127 120.494 36.201 120.384 36.2942 120.291C36.3875 120.198 36.4981 120.124 36.6198 120.074C36.7415 120.024 36.8718 119.999 37.0032 120C37.2676 120 37.5211 120.105 37.7081 120.293C37.895 120.48 38 120.735 38 121C38 121.131 37.9742 121.261 37.9241 121.383C37.874 121.504 37.8006 121.614 37.7081 121.707C37.6155 121.8 37.5056 121.874 37.3847 121.924C37.2637 121.974 37.1341 122 37.0032 122C36.8718 122.001 36.7415 121.976 36.6198 121.926C36.4981 121.876 36.3875 121.802 36.2942 121.709C36.201 121.616 36.127 121.506 36.0765 121.384C36.026 121.262 36 121.132 36 121Z" fill="#858FA3"/>
<path d="M37 134C37.5523 134 38 133.552 38 133C38 132.448 37.5523 132 37 132C36.4477 132 36 132.448 36 133C36 133.552 36.4477 134 37 134Z" fill="#858FA3"/>
<path d="M48 1C48 0.868136 48.026 0.737574 48.0765 0.615828C48.127 0.494083 48.201 0.383558 48.2942 0.290616C48.3875 0.197675 48.4981 0.124153 48.6198 0.0742804C48.7415 0.0244077 48.8718 -0.000829921 49.0032 2.08129e-05C49.2676 2.08129e-05 49.5211 0.105375 49.7081 0.292907C49.895 0.48044 50 0.734789 50 1C50 1.26521 49.895 1.51956 49.7081 1.70709C49.5211 1.89463 49.2676 1.99998 49.0032 1.99998C48.8718 2.00083 48.7415 1.97559 48.6198 1.92572C48.4981 1.87585 48.3875 1.80233 48.2942 1.70938C48.201 1.61644 48.127 1.50592 48.0765 1.38417C48.026 1.26243 48 1.13186 48 1Z" fill="#858FA3"/>
<path d="M49 14C49.5523 14 50 13.5523 50 13C50 12.4477 49.5523 12 49 12C48.4477 12 48 12.4477 48 13C48 13.5523 48.4477 14 49 14Z" fill="#858FA3"/>
<path d="M48 25.0032C48 24.7371 48.1057 24.482 48.2938 24.2938C48.482 24.1057 48.7371 24 49.0032 24C49.2682 24.0017 49.5217 24.1081 49.7084 24.2961C49.8952 24.4841 50 24.7383 50 25.0032C49.9983 25.2671 49.8928 25.5196 49.7062 25.7062C49.5196 25.8928 49.2671 25.9983 49.0032 26C48.7383 26 48.4841 25.8952 48.2961 25.7084C48.1081 25.5217 48.0017 25.2682 48 25.0032Z" fill="#858FA3"/>
<path d="M48 37.0032C48 36.7371 48.1057 36.482 48.2938 36.2938C48.482 36.1057 48.7371 36 49.0032 36C49.2682 36.0017 49.5217 36.1081 49.7084 36.2961C49.8952 36.4841 50 36.7383 50 37.0032C49.9983 37.2671 49.8928 37.5196 49.7062 37.7062C49.5196 37.8928 49.2671 37.9983 49.0032 38C48.7383 38 48.4841 37.8952 48.2961 37.7084C48.1081 37.5217 48.0017 37.2682 48 37.0032Z" fill="#858FA3"/>
<path d="M48 49C48 48.8681 48.026 48.7376 48.0765 48.6158C48.127 48.4941 48.201 48.3836 48.2942 48.2906C48.3875 48.1977 48.4981 48.1242 48.6198 48.0743C48.7415 48.0244 48.8718 47.9992 49.0032 48C49.2676 48 49.5211 48.1054 49.7081 48.2929C49.895 48.4804 50 48.7348 50 49C50 49.2652 49.895 49.5196 49.7081 49.7071C49.5211 49.8946 49.2676 50 49.0032 50C48.8718 50.0008 48.7415 49.9756 48.6198 49.9257C48.4981 49.8758 48.3875 49.8023 48.2942 49.7094C48.201 49.6164 48.127 49.5059 48.0765 49.3842C48.026 49.2624 48 49.1319 48 49Z" fill="#858FA3"/>
<path d="M48.0002 60.9904C48.0002 60.8598 48.0262 60.7305 48.0767 60.6099C48.1271 60.4893 48.2011 60.3799 48.2944 60.2878C48.3876 60.1958 48.4982 60.123 48.6199 60.0736C48.7415 60.0242 48.8718 59.9992 49.0032 60C49.2675 60 49.521 60.1044 49.7079 60.2901C49.8948 60.4758 49.9998 60.7277 49.9998 60.9904C50.0024 61.1221 49.9785 61.2529 49.9296 61.3753C49.8806 61.4977 49.8076 61.6091 49.7148 61.7032C49.622 61.7972 49.5113 61.8718 49.3891 61.9228C49.2669 61.9738 49.1357 62 49.0032 62C48.8702 62.0009 48.7383 61.9752 48.6153 61.9247C48.4924 61.8741 48.3809 61.7995 48.2874 61.7054C48.1939 61.6114 48.1204 61.4996 48.071 61.3768C48.0217 61.254 47.9976 61.1226 48.0002 60.9904Z" fill="#858FA3"/>
<path d="M49 74C49.5523 74 50 73.5523 50 73C50 72.4477 49.5523 72 49 72C48.4477 72 48 72.4477 48 73C48 73.5523 48.4477 74 49 74Z" fill="#858FA3"/>
<path d="M48 84.9968C48.0017 84.7318 48.1081 84.4783 48.2961 84.2916C48.4841 84.1048 48.7383 84 49.0032 84C49.2671 84.0017 49.5196 84.1072 49.7062 84.2938C49.8928 84.4804 49.9983 84.7329 50 84.9968C50 85.2617 49.8952 85.5159 49.7084 85.7039C49.5217 85.8919 49.2682 85.9983 49.0032 86C48.7371 86 48.482 85.8943 48.2938 85.7062C48.1057 85.518 48 85.2629 48 84.9968Z" fill="#858FA3"/>
<path d="M48 97.013C48 96.7443 48.1057 96.4867 48.2938 96.2967C48.482 96.1067 48.7371 96 49.0032 96C49.2682 96.0017 49.5217 96.1092 49.7084 96.299C49.8952 96.4888 50 96.7454 50 97.013C49.9933 97.276 49.8856 97.5261 49.6995 97.7103C49.5135 97.8945 49.2638 97.9984 49.0032 98C48.7415 98.0001 48.4902 97.8969 48.3028 97.7125C48.1154 97.5282 48.0067 97.2771 48 97.013Z" fill="#858FA3"/>
<path d="M48 109C48 108.868 48.026 108.738 48.0765 108.616C48.127 108.494 48.201 108.384 48.2942 108.291C48.3875 108.198 48.4981 108.124 48.6198 108.074C48.7415 108.024 48.8718 107.999 49.0032 108C49.2676 108 49.5211 108.105 49.7081 108.293C49.895 108.48 50 108.735 50 109C50 109.265 49.895 109.52 49.7081 109.707C49.5211 109.895 49.2676 110 49.0032 110C48.8718 110.001 48.7415 109.976 48.6198 109.926C48.4981 109.876 48.3875 109.802 48.2942 109.709C48.201 109.616 48.127 109.506 48.0765 109.384C48.026 109.262 48 109.132 48 109Z" fill="#858FA3"/>
<path d="M48 121C48 120.868 48.026 120.738 48.0765 120.616C48.127 120.494 48.201 120.384 48.2942 120.291C48.3875 120.198 48.4981 120.124 48.6198 120.074C48.7415 120.024 48.8718 119.999 49.0032 120C49.2676 120 49.5211 120.105 49.7081 120.293C49.895 120.48 50 120.735 50 121C50 121.131 49.9742 121.261 49.9241 121.383C49.874 121.504 49.8006 121.614 49.7081 121.707C49.6155 121.8 49.5056 121.874 49.3847 121.924C49.2637 121.974 49.1341 122 49.0032 122C48.8718 122.001 48.7415 121.976 48.6198 121.926C48.4981 121.876 48.3875 121.802 48.2942 121.709C48.201 121.616 48.127 121.506 48.0765 121.384C48.026 121.262 48 121.132 48 121Z" fill="#858FA3"/>
<path d="M49 134C49.5523 134 50 133.552 50 133C50 132.448 49.5523 132 49 132C48.4477 132 48 132.448 48 133C48 133.552 48.4477 134 49 134Z" fill="#858FA3"/>
<path d="M60 1C60 0.868136 60.026 0.737574 60.0765 0.615828C60.127 0.494083 60.201 0.383558 60.2942 0.290616C60.3875 0.197675 60.4981 0.124153 60.6198 0.0742804C60.7415 0.0244077 60.8718 -0.000829921 61.0032 2.08129e-05C61.2676 2.08129e-05 61.5211 0.105375 61.7081 0.292907C61.895 0.48044 62 0.734789 62 1C62 1.26521 61.895 1.51956 61.7081 1.70709C61.5211 1.89463 61.2676 1.99998 61.0032 1.99998C60.8718 2.00083 60.7415 1.97559 60.6198 1.92572C60.4981 1.87585 60.3875 1.80233 60.2942 1.70938C60.201 1.61644 60.127 1.50592 60.0765 1.38417C60.026 1.26243 60 1.13186 60 1Z" fill="#858FA3"/>
<path d="M61 14C61.5523 14 62 13.5523 62 13C62 12.4477 61.5523 12 61 12C60.4477 12 60 12.4477 60 13C60 13.5523 60.4477 14 61 14Z" fill="#858FA3"/>
<path d="M60 25.0032C60 24.7371 60.1057 24.482 60.2938 24.2938C60.482 24.1057 60.7371 24 61.0032 24C61.2682 24.0017 61.5217 24.1081 61.7084 24.2961C61.8952 24.4841 62 24.7383 62 25.0032C61.9983 25.2671 61.8928 25.5196 61.7062 25.7062C61.5196 25.8928 61.2671 25.9983 61.0032 26C60.7383 26 60.4841 25.8952 60.2961 25.7084C60.1081 25.5217 60.0017 25.2682 60 25.0032Z" fill="#858FA3"/>
<path d="M60 37.0032C60 36.7371 60.1057 36.482 60.2938 36.2938C60.482 36.1057 60.7371 36 61.0032 36C61.2682 36.0017 61.5217 36.1081 61.7084 36.2961C61.8952 36.4841 62 36.7383 62 37.0032C61.9983 37.2671 61.8928 37.5196 61.7062 37.7062C61.5196 37.8928 61.2671 37.9983 61.0032 38C60.7383 38 60.4841 37.8952 60.2961 37.7084C60.1081 37.5217 60.0017 37.2682 60 37.0032Z" fill="#858FA3"/>
<path d="M60 49C60 48.8681 60.026 48.7376 60.0765 48.6158C60.127 48.4941 60.201 48.3836 60.2942 48.2906C60.3875 48.1977 60.4981 48.1242 60.6198 48.0743C60.7415 48.0244 60.8718 47.9992 61.0032 48C61.2676 48 61.5211 48.1054 61.7081 48.2929C61.895 48.4804 62 48.7348 62 49C62 49.2652 61.895 49.5196 61.7081 49.7071C61.5211 49.8946 61.2676 50 61.0032 50C60.8718 50.0008 60.7415 49.9756 60.6198 49.9257C60.4981 49.8758 60.3875 49.8023 60.2942 49.7094C60.201 49.6164 60.127 49.5059 60.0765 49.3842C60.026 49.2624 60 49.1319 60 49Z" fill="#858FA3"/>
<path d="M60.0002 60.9904C60.0002 60.8598 60.0262 60.7305 60.0767 60.6099C60.1271 60.4893 60.2011 60.3799 60.2944 60.2878C60.3876 60.1958 60.4982 60.123 60.6199 60.0736C60.7415 60.0242 60.8718 59.9992 61.0032 60C61.2675 60 61.521 60.1044 61.7079 60.2901C61.8948 60.4758 61.9998 60.7277 61.9998 60.9904C62.0024 61.1221 61.9785 61.2529 61.9296 61.3753C61.8806 61.4977 61.8076 61.6091 61.7148 61.7032C61.622 61.7972 61.5113 61.8718 61.3891 61.9228C61.2669 61.9738 61.1357 62 61.0032 62C60.8702 62.0009 60.7383 61.9752 60.6153 61.9247C60.4924 61.8741 60.3809 61.7995 60.2874 61.7054C60.1939 61.6114 60.1204 61.4996 60.071 61.3768C60.0217 61.254 59.9976 61.1226 60.0002 60.9904Z" fill="#858FA3"/>
<path d="M61 74C61.5523 74 62 73.5523 62 73C62 72.4477 61.5523 72 61 72C60.4477 72 60 72.4477 60 73C60 73.5523 60.4477 74 61 74Z" fill="#858FA3"/>
<path d="M60 84.9968C60.0017 84.7318 60.1081 84.4783 60.2961 84.2916C60.4841 84.1048 60.7383 84 61.0032 84C61.2671 84.0017 61.5196 84.1072 61.7062 84.2938C61.8928 84.4804 61.9983 84.7329 62 84.9968C62 85.2617 61.8952 85.5159 61.7084 85.7039C61.5217 85.8919 61.2682 85.9983 61.0032 86C60.7371 86 60.482 85.8943 60.2938 85.7062C60.1057 85.518 60 85.2629 60 84.9968Z" fill="#858FA3"/>
<path d="M60 97.013C60 96.7443 60.1057 96.4867 60.2938 96.2967C60.482 96.1067 60.7371 96 61.0032 96C61.2682 96.0017 61.5217 96.1092 61.7084 96.299C61.8952 96.4888 62 96.7454 62 97.013C61.9933 97.276 61.8856 97.5261 61.6995 97.7103C61.5135 97.8945 61.2638 97.9984 61.0032 98C60.7415 98.0001 60.4902 97.8969 60.3028 97.7125C60.1154 97.5282 60.0067 97.2771 60 97.013Z" fill="#858FA3"/>
<path d="M60 109C60 108.868 60.026 108.738 60.0765 108.616C60.127 108.494 60.201 108.384 60.2942 108.291C60.3875 108.198 60.4981 108.124 60.6198 108.074C60.7415 108.024 60.8718 107.999 61.0032 108C61.2676 108 61.5211 108.105 61.7081 108.293C61.895 108.48 62 108.735 62 109C62 109.265 61.895 109.52 61.7081 109.707C61.5211 109.895 61.2676 110 61.0032 110C60.8718 110.001 60.7415 109.976 60.6198 109.926C60.4981 109.876 60.3875 109.802 60.2942 109.709C60.201 109.616 60.127 109.506 60.0765 109.384C60.026 109.262 60 109.132 60 109Z" fill="#858FA3"/>
<path d="M60 121C60 120.868 60.026 120.738 60.0765 120.616C60.127 120.494 60.201 120.384 60.2942 120.291C60.3875 120.198 60.4981 120.124 60.6198 120.074C60.7415 120.024 60.8718 119.999 61.0032 120C61.2676 120 61.5211 120.105 61.7081 120.293C61.895 120.48 62 120.735 62 121C62 121.131 61.9742 121.261 61.9241 121.383C61.874 121.504 61.8006 121.614 61.7081 121.707C61.6155 121.8 61.5056 121.874 61.3847 121.924C61.2637 121.974 61.1341 122 61.0032 122C60.8718 122.001 60.7415 121.976 60.6198 121.926C60.4981 121.876 60.3875 121.802 60.2942 121.709C60.201 121.616 60.127 121.506 60.0765 121.384C60.026 121.262 60 121.132 60 121Z" fill="#858FA3"/>
<path d="M61 134C61.5523 134 62 133.552 62 133C62 132.448 61.5523 132 61 132C60.4477 132 60 132.448 60 133C60 133.552 60.4477 134 61 134Z" fill="#858FA3"/>
<path d="M72 1C72 0.868136 72.026 0.737574 72.0765 0.615828C72.127 0.494083 72.201 0.383558 72.2942 0.290616C72.3875 0.197675 72.4981 0.124153 72.6198 0.0742804C72.7415 0.0244077 72.8718 -0.000829921 73.0032 2.08129e-05C73.2676 2.08129e-05 73.5211 0.105375 73.7081 0.292907C73.895 0.48044 74 0.734789 74 1C74 1.26521 73.895 1.51956 73.7081 1.70709C73.5211 1.89463 73.2676 1.99998 73.0032 1.99998C72.8718 2.00083 72.7415 1.97559 72.6198 1.92572C72.4981 1.87585 72.3875 1.80233 72.2942 1.70938C72.201 1.61644 72.127 1.50592 72.0765 1.38417C72.026 1.26243 72 1.13186 72 1Z" fill="#858FA3"/>
<path d="M73 14C73.5523 14 74 13.5523 74 13C74 12.4477 73.5523 12 73 12C72.4477 12 72 12.4477 72 13C72 13.5523 72.4477 14 73 14Z" fill="#858FA3"/>
<path d="M72 25.0032C72 24.7371 72.1057 24.482 72.2938 24.2938C72.482 24.1057 72.7371 24 73.0032 24C73.2682 24.0017 73.5217 24.1081 73.7084 24.2961C73.8952 24.4841 74 24.7383 74 25.0032C73.9983 25.2671 73.8928 25.5196 73.7062 25.7062C73.5196 25.8928 73.2671 25.9983 73.0032 26C72.7383 26 72.4841 25.8952 72.2961 25.7084C72.1081 25.5217 72.0017 25.2682 72 25.0032Z" fill="#858FA3"/>
<path d="M72 37.0032C72 36.7371 72.1057 36.482 72.2938 36.2938C72.482 36.1057 72.7371 36 73.0032 36C73.2682 36.0017 73.5217 36.1081 73.7084 36.2961C73.8952 36.4841 74 36.7383 74 37.0032C73.9983 37.2671 73.8928 37.5196 73.7062 37.7062C73.5196 37.8928 73.2671 37.9983 73.0032 38C72.7383 38 72.4841 37.8952 72.2961 37.7084C72.1081 37.5217 72.0017 37.2682 72 37.0032Z" fill="#858FA3"/>
<path d="M72 49C72 48.8681 72.026 48.7376 72.0765 48.6158C72.127 48.4941 72.201 48.3836 72.2942 48.2906C72.3875 48.1977 72.4981 48.1242 72.6198 48.0743C72.7415 48.0244 72.8718 47.9992 73.0032 48C73.2676 48 73.5211 48.1054 73.7081 48.2929C73.895 48.4804 74 48.7348 74 49C74 49.2652 73.895 49.5196 73.7081 49.7071C73.5211 49.8946 73.2676 50 73.0032 50C72.8718 50.0008 72.7415 49.9756 72.6198 49.9257C72.4981 49.8758 72.3875 49.8023 72.2942 49.7094C72.201 49.6164 72.127 49.5059 72.0765 49.3842C72.026 49.2624 72 49.1319 72 49Z" fill="#858FA3"/>
<path d="M72.0002 60.9904C72.0002 60.8598 72.0262 60.7305 72.0767 60.6099C72.1271 60.4893 72.2011 60.3799 72.2944 60.2878C72.3876 60.1958 72.4982 60.123 72.6199 60.0736C72.7415 60.0242 72.8718 59.9992 73.0032 60C73.2675 60 73.521 60.1044 73.7079 60.2901C73.8948 60.4758 73.9998 60.7277 73.9998 60.9904C74.0024 61.1221 73.9785 61.2529 73.9296 61.3753C73.8806 61.4977 73.8076 61.6091 73.7148 61.7032C73.622 61.7972 73.5113 61.8718 73.3891 61.9228C73.2669 61.9738 73.1357 62 73.0032 62C72.8702 62.0009 72.7383 61.9752 72.6153 61.9247C72.4924 61.8741 72.3809 61.7995 72.2874 61.7054C72.1939 61.6114 72.1204 61.4996 72.071 61.3768C72.0217 61.254 71.9976 61.1226 72.0002 60.9904Z" fill="#858FA3"/>
<path d="M73 74C73.5523 74 74 73.5523 74 73C74 72.4477 73.5523 72 73 72C72.4477 72 72 72.4477 72 73C72 73.5523 72.4477 74 73 74Z" fill="#858FA3"/>
<path d="M72 84.9968C72.0017 84.7318 72.1081 84.4783 72.2961 84.2916C72.4841 84.1048 72.7383 84 73.0032 84C73.2671 84.0017 73.5196 84.1072 73.7062 84.2938C73.8928 84.4804 73.9983 84.7329 74 84.9968C74 85.2617 73.8952 85.5159 73.7084 85.7039C73.5217 85.8919 73.2682 85.9983 73.0032 86C72.7371 86 72.482 85.8943 72.2938 85.7062C72.1057 85.518 72 85.2629 72 84.9968Z" fill="#858FA3"/>
<path d="M72 97.013C72 96.7443 72.1057 96.4867 72.2938 96.2967C72.482 96.1067 72.7371 96 73.0032 96C73.2682 96.0017 73.5217 96.1092 73.7084 96.299C73.8952 96.4888 74 96.7454 74 97.013C73.9933 97.276 73.8856 97.5261 73.6995 97.7103C73.5135 97.8945 73.2638 97.9984 73.0032 98C72.7415 98.0001 72.4902 97.8969 72.3028 97.7125C72.1154 97.5282 72.0067 97.2771 72 97.013Z" fill="#858FA3"/>
<path d="M72 109C72 108.868 72.026 108.738 72.0765 108.616C72.127 108.494 72.201 108.384 72.2942 108.291C72.3875 108.198 72.4981 108.124 72.6198 108.074C72.7415 108.024 72.8718 107.999 73.0032 108C73.2676 108 73.5211 108.105 73.7081 108.293C73.895 108.48 74 108.735 74 109C74 109.265 73.895 109.52 73.7081 109.707C73.5211 109.895 73.2676 110 73.0032 110C72.8718 110.001 72.7415 109.976 72.6198 109.926C72.4981 109.876 72.3875 109.802 72.2942 109.709C72.201 109.616 72.127 109.506 72.0765 109.384C72.026 109.262 72 109.132 72 109Z" fill="#858FA3"/>
<path d="M72 121C72 120.868 72.026 120.738 72.0765 120.616C72.127 120.494 72.201 120.384 72.2942 120.291C72.3875 120.198 72.4981 120.124 72.6198 120.074C72.7415 120.024 72.8718 119.999 73.0032 120C73.2676 120 73.5211 120.105 73.7081 120.293C73.895 120.48 74 120.735 74 121C74 121.131 73.9742 121.261 73.9241 121.383C73.874 121.504 73.8006 121.614 73.7081 121.707C73.6155 121.8 73.5056 121.874 73.3847 121.924C73.2637 121.974 73.1341 122 73.0032 122C72.8718 122.001 72.7415 121.976 72.6198 121.926C72.4981 121.876 72.3875 121.802 72.2942 121.709C72.201 121.616 72.127 121.506 72.0765 121.384C72.026 121.262 72 121.132 72 121Z" fill="#858FA3"/>
<path d="M73 134C73.5523 134 74 133.552 74 133C74 132.448 73.5523 132 73 132C72.4477 132 72 132.448 72 133C72 133.552 72.4477 134 73 134Z" fill="#858FA3"/>
<path d="M84 1C84 0.868136 84.026 0.737574 84.0765 0.615828C84.127 0.494083 84.201 0.383558 84.2942 0.290616C84.3875 0.197675 84.4981 0.124153 84.6198 0.0742804C84.7415 0.0244077 84.8718 -0.000829921 85.0032 2.08129e-05C85.2676 2.08129e-05 85.5211 0.105375 85.7081 0.292907C85.895 0.48044 86 0.734789 86 1C86 1.26521 85.895 1.51956 85.7081 1.70709C85.5211 1.89463 85.2676 1.99998 85.0032 1.99998C84.8718 2.00083 84.7415 1.97559 84.6198 1.92572C84.4981 1.87585 84.3875 1.80233 84.2942 1.70938C84.201 1.61644 84.127 1.50592 84.0765 1.38417C84.026 1.26243 84 1.13186 84 1Z" fill="#858FA3"/>
<path d="M85 14C85.5523 14 86 13.5523 86 13C86 12.4477 85.5523 12 85 12C84.4477 12 84 12.4477 84 13C84 13.5523 84.4477 14 85 14Z" fill="#858FA3"/>
<path d="M84 25.0032C84 24.7371 84.1057 24.482 84.2938 24.2938C84.482 24.1057 84.7371 24 85.0032 24C85.2682 24.0017 85.5217 24.1081 85.7084 24.2961C85.8952 24.4841 86 24.7383 86 25.0032C85.9983 25.2671 85.8928 25.5196 85.7062 25.7062C85.5196 25.8928 85.2671 25.9983 85.0032 26C84.7383 26 84.4841 25.8952 84.2961 25.7084C84.1081 25.5217 84.0017 25.2682 84 25.0032Z" fill="#858FA3"/>
<path d="M84 37.0032C84 36.7371 84.1057 36.482 84.2938 36.2938C84.482 36.1057 84.7371 36 85.0032 36C85.2682 36.0017 85.5217 36.1081 85.7084 36.2961C85.8952 36.4841 86 36.7383 86 37.0032C85.9983 37.2671 85.8928 37.5196 85.7062 37.7062C85.5196 37.8928 85.2671 37.9983 85.0032 38C84.7383 38 84.4841 37.8952 84.2961 37.7084C84.1081 37.5217 84.0017 37.2682 84 37.0032Z" fill="#858FA3"/>
<path d="M84 49C84 48.8681 84.026 48.7376 84.0765 48.6158C84.127 48.4941 84.201 48.3836 84.2942 48.2906C84.3875 48.1977 84.4981 48.1242 84.6198 48.0743C84.7415 48.0244 84.8718 47.9992 85.0032 48C85.2676 48 85.5211 48.1054 85.7081 48.2929C85.895 48.4804 86 48.7348 86 49C86 49.2652 85.895 49.5196 85.7081 49.7071C85.5211 49.8946 85.2676 50 85.0032 50C84.8718 50.0008 84.7415 49.9756 84.6198 49.9257C84.4981 49.8758 84.3875 49.8023 84.2942 49.7094C84.201 49.6164 84.127 49.5059 84.0765 49.3842C84.026 49.2624 84 49.1319 84 49Z" fill="#858FA3"/>
<path d="M84.0002 60.9904C84.0002 60.8598 84.0262 60.7305 84.0767 60.6099C84.1271 60.4893 84.2011 60.3799 84.2944 60.2878C84.3876 60.1958 84.4982 60.123 84.6199 60.0736C84.7415 60.0242 84.8718 59.9992 85.0032 60C85.2675 60 85.521 60.1044 85.7079 60.2901C85.8948 60.4758 85.9998 60.7277 85.9998 60.9904C86.0024 61.1221 85.9785 61.2529 85.9296 61.3753C85.8806 61.4977 85.8076 61.6091 85.7148 61.7032C85.622 61.7972 85.5113 61.8718 85.3891 61.9228C85.2669 61.9738 85.1357 62 85.0032 62C84.8702 62.0009 84.7383 61.9752 84.6153 61.9247C84.4924 61.8741 84.3809 61.7995 84.2874 61.7054C84.1939 61.6114 84.1204 61.4996 84.071 61.3768C84.0217 61.254 83.9976 61.1226 84.0002 60.9904Z" fill="#858FA3"/>
<path d="M85 74C85.5523 74 86 73.5523 86 73C86 72.4477 85.5523 72 85 72C84.4477 72 84 72.4477 84 73C84 73.5523 84.4477 74 85 74Z" fill="#858FA3"/>
<path d="M84 84.9968C84.0017 84.7318 84.1081 84.4783 84.2961 84.2916C84.4841 84.1048 84.7383 84 85.0032 84C85.2671 84.0017 85.5196 84.1072 85.7062 84.2938C85.8928 84.4804 85.9983 84.7329 86 84.9968C86 85.2617 85.8952 85.5159 85.7084 85.7039C85.5217 85.8919 85.2682 85.9983 85.0032 86C84.7371 86 84.482 85.8943 84.2938 85.7062C84.1057 85.518 84 85.2629 84 84.9968Z" fill="#858FA3"/>
<path d="M84 97.013C84 96.7443 84.1057 96.4867 84.2938 96.2967C84.482 96.1067 84.7371 96 85.0032 96C85.2682 96.0017 85.5217 96.1092 85.7084 96.299C85.8952 96.4888 86 96.7454 86 97.013C85.9933 97.276 85.8856 97.5261 85.6995 97.7103C85.5135 97.8945 85.2638 97.9984 85.0032 98C84.7415 98.0001 84.4902 97.8969 84.3028 97.7125C84.1154 97.5282 84.0067 97.2771 84 97.013Z" fill="#858FA3"/>
<path d="M84 109C84 108.868 84.026 108.738 84.0765 108.616C84.127 108.494 84.201 108.384 84.2942 108.291C84.3875 108.198 84.4981 108.124 84.6198 108.074C84.7415 108.024 84.8718 107.999 85.0032 108C85.2676 108 85.5211 108.105 85.7081 108.293C85.895 108.48 86 108.735 86 109C86 109.265 85.895 109.52 85.7081 109.707C85.5211 109.895 85.2676 110 85.0032 110C84.8718 110.001 84.7415 109.976 84.6198 109.926C84.4981 109.876 84.3875 109.802 84.2942 109.709C84.201 109.616 84.127 109.506 84.0765 109.384C84.026 109.262 84 109.132 84 109Z" fill="#858FA3"/>
<path d="M84 121C84 120.868 84.026 120.738 84.0765 120.616C84.127 120.494 84.201 120.384 84.2942 120.291C84.3875 120.198 84.4981 120.124 84.6198 120.074C84.7415 120.024 84.8718 119.999 85.0032 120C85.2676 120 85.5211 120.105 85.7081 120.293C85.895 120.48 86 120.735 86 121C86 121.131 85.9742 121.261 85.9241 121.383C85.874 121.504 85.8006 121.614 85.7081 121.707C85.6155 121.8 85.5056 121.874 85.3847 121.924C85.2637 121.974 85.1341 122 85.0032 122C84.8718 122.001 84.7415 121.976 84.6198 121.926C84.4981 121.876 84.3875 121.802 84.2942 121.709C84.201 121.616 84.127 121.506 84.0765 121.384C84.026 121.262 84 121.132 84 121Z" fill="#858FA3"/>
<path d="M85 134C85.5523 134 86 133.552 86 133C86 132.448 85.5523 132 85 132C84.4477 132 84 132.448 84 133C84 133.552 84.4477 134 85 134Z" fill="#858FA3"/>
<path d="M96 1C96 0.868136 96.026 0.737574 96.0765 0.615828C96.127 0.494083 96.201 0.383558 96.2942 0.290616C96.3875 0.197675 96.4981 0.124153 96.6198 0.0742804C96.7415 0.0244077 96.8718 -0.000829921 97.0032 2.08129e-05C97.2676 2.08129e-05 97.5211 0.105375 97.7081 0.292907C97.895 0.48044 98 0.734789 98 1C98 1.26521 97.895 1.51956 97.7081 1.70709C97.5211 1.89463 97.2676 1.99998 97.0032 1.99998C96.8718 2.00083 96.7415 1.97559 96.6198 1.92572C96.4981 1.87585 96.3875 1.80233 96.2942 1.70938C96.201 1.61644 96.127 1.50592 96.0765 1.38417C96.026 1.26243 96 1.13186 96 1Z" fill="#858FA3"/>
<path d="M97 14C97.5523 14 98 13.5523 98 13C98 12.4477 97.5523 12 97 12C96.4477 12 96 12.4477 96 13C96 13.5523 96.4477 14 97 14Z" fill="#858FA3"/>
<path d="M96 25.0032C96 24.7371 96.1057 24.482 96.2938 24.2938C96.482 24.1057 96.7371 24 97.0032 24C97.2682 24.0017 97.5217 24.1081 97.7084 24.2961C97.8952 24.4841 98 24.7383 98 25.0032C97.9983 25.2671 97.8928 25.5196 97.7062 25.7062C97.5196 25.8928 97.2671 25.9983 97.0032 26C96.7383 26 96.4841 25.8952 96.2961 25.7084C96.1081 25.5217 96.0017 25.2682 96 25.0032Z" fill="#858FA3"/>
<path d="M96 37.0032C96 36.7371 96.1057 36.482 96.2938 36.2938C96.482 36.1057 96.7371 36 97.0032 36C97.2682 36.0017 97.5217 36.1081 97.7084 36.2961C97.8952 36.4841 98 36.7383 98 37.0032C97.9983 37.2671 97.8928 37.5196 97.7062 37.7062C97.5196 37.8928 97.2671 37.9983 97.0032 38C96.7383 38 96.4841 37.8952 96.2961 37.7084C96.1081 37.5217 96.0017 37.2682 96 37.0032Z" fill="#858FA3"/>
<path d="M96 49C96 48.8681 96.026 48.7376 96.0765 48.6158C96.127 48.4941 96.201 48.3836 96.2942 48.2906C96.3875 48.1977 96.4981 48.1242 96.6198 48.0743C96.7415 48.0244 96.8718 47.9992 97.0032 48C97.2676 48 97.5211 48.1054 97.7081 48.2929C97.895 48.4804 98 48.7348 98 49C98 49.2652 97.895 49.5196 97.7081 49.7071C97.5211 49.8946 97.2676 50 97.0032 50C96.8718 50.0008 96.7415 49.9756 96.6198 49.9257C96.4981 49.8758 96.3875 49.8023 96.2942 49.7094C96.201 49.6164 96.127 49.5059 96.0765 49.3842C96.026 49.2624 96 49.1319 96 49Z" fill="#858FA3"/>
<path d="M96.0002 60.9904C96.0002 60.8598 96.0262 60.7305 96.0767 60.6099C96.1271 60.4893 96.2011 60.3799 96.2944 60.2878C96.3876 60.1958 96.4982 60.123 96.6199 60.0736C96.7415 60.0242 96.8718 59.9992 97.0032 60C97.2675 60 97.521 60.1044 97.7079 60.2901C97.8948 60.4758 97.9998 60.7277 97.9998 60.9904C98.0024 61.1221 97.9785 61.2529 97.9296 61.3753C97.8806 61.4977 97.8076 61.6091 97.7148 61.7032C97.622 61.7972 97.5113 61.8718 97.3891 61.9228C97.2669 61.9738 97.1357 62 97.0032 62C96.8702 62.0009 96.7383 61.9752 96.6153 61.9247C96.4924 61.8741 96.3809 61.7995 96.2874 61.7054C96.1939 61.6114 96.1204 61.4996 96.071 61.3768C96.0217 61.254 95.9976 61.1226 96.0002 60.9904Z" fill="#858FA3"/>
<path d="M97 74C97.5523 74 98 73.5523 98 73C98 72.4477 97.5523 72 97 72C96.4477 72 96 72.4477 96 73C96 73.5523 96.4477 74 97 74Z" fill="#858FA3"/>
<path d="M96 84.9968C96.0017 84.7318 96.1081 84.4783 96.2961 84.2916C96.4841 84.1048 96.7383 84 97.0032 84C97.2671 84.0017 97.5196 84.1072 97.7062 84.2938C97.8928 84.4804 97.9983 84.7329 98 84.9968C98 85.2617 97.8952 85.5159 97.7084 85.7039C97.5217 85.8919 97.2682 85.9983 97.0032 86C96.7371 86 96.482 85.8943 96.2938 85.7062C96.1057 85.518 96 85.2629 96 84.9968Z" fill="#858FA3"/>
<path d="M96 97.013C96 96.7443 96.1057 96.4867 96.2938 96.2967C96.482 96.1067 96.7371 96 97.0032 96C97.2682 96.0017 97.5217 96.1092 97.7084 96.299C97.8952 96.4888 98 96.7454 98 97.013C97.9933 97.276 97.8856 97.5261 97.6995 97.7103C97.5135 97.8945 97.2638 97.9984 97.0032 98C96.7415 98.0001 96.4902 97.8969 96.3028 97.7125C96.1154 97.5282 96.0067 97.2771 96 97.013Z" fill="#858FA3"/>
<path d="M96 109C96 108.868 96.026 108.738 96.0765 108.616C96.127 108.494 96.201 108.384 96.2942 108.291C96.3875 108.198 96.4981 108.124 96.6198 108.074C96.7415 108.024 96.8718 107.999 97.0032 108C97.2676 108 97.5211 108.105 97.7081 108.293C97.895 108.48 98 108.735 98 109C98 109.265 97.895 109.52 97.7081 109.707C97.5211 109.895 97.2676 110 97.0032 110C96.8718 110.001 96.7415 109.976 96.6198 109.926C96.4981 109.876 96.3875 109.802 96.2942 109.709C96.201 109.616 96.127 109.506 96.0765 109.384C96.026 109.262 96 109.132 96 109Z" fill="#858FA3"/>
<path d="M96 121C96 120.868 96.026 120.738 96.0765 120.616C96.127 120.494 96.201 120.384 96.2942 120.291C96.3875 120.198 96.4981 120.124 96.6198 120.074C96.7415 120.024 96.8718 119.999 97.0032 120C97.2676 120 97.5211 120.105 97.7081 120.293C97.895 120.48 98 120.735 98 121C98 121.131 97.9742 121.261 97.9241 121.383C97.874 121.504 97.8006 121.614 97.7081 121.707C97.6155 121.8 97.5056 121.874 97.3847 121.924C97.2637 121.974 97.1341 122 97.0032 122C96.8718 122.001 96.7415 121.976 96.6198 121.926C96.4981 121.876 96.3875 121.802 96.2942 121.709C96.201 121.616 96.127 121.506 96.0765 121.384C96.026 121.262 96 121.132 96 121Z" fill="#858FA3"/>
<path d="M97 134C97.5523 134 98 133.552 98 133C98 132.448 97.5523 132 97 132C96.4477 132 96 132.448 96 133C96 133.552 96.4477 134 97 134Z" fill="#858FA3"/>
<path d="M108 1C108 0.868136 108.026 0.737574 108.076 0.615828C108.127 0.494083 108.201 0.383558 108.294 0.290616C108.387 0.197675 108.498 0.124153 108.62 0.0742804C108.741 0.0244077 108.872 -0.000829921 109.003 2.08129e-05C109.268 2.08129e-05 109.521 0.105375 109.708 0.292907C109.895 0.48044 110 0.734789 110 1C110 1.26521 109.895 1.51956 109.708 1.70709C109.521 1.89463 109.268 1.99998 109.003 1.99998C108.872 2.00083 108.741 1.97559 108.62 1.92572C108.498 1.87585 108.387 1.80233 108.294 1.70938C108.201 1.61644 108.127 1.50592 108.076 1.38417C108.026 1.26243 108 1.13186 108 1Z" fill="#858FA3"/>
<path d="M109 14C109.552 14 110 13.5523 110 13C110 12.4477 109.552 12 109 12C108.448 12 108 12.4477 108 13C108 13.5523 108.448 14 109 14Z" fill="#858FA3"/>
<path d="M108 25.0032C108 24.7371 108.106 24.482 108.294 24.2938C108.482 24.1057 108.737 24 109.003 24C109.268 24.0017 109.522 24.1081 109.708 24.2961C109.895 24.4841 110 24.7383 110 25.0032C109.998 25.2671 109.893 25.5196 109.706 25.7062C109.52 25.8928 109.267 25.9983 109.003 26C108.738 26 108.484 25.8952 108.296 25.7084C108.108 25.5217 108.002 25.2682 108 25.0032Z" fill="#858FA3"/>
<path d="M108 37.0032C108 36.7371 108.106 36.482 108.294 36.2938C108.482 36.1057 108.737 36 109.003 36C109.268 36.0017 109.522 36.1081 109.708 36.2961C109.895 36.4841 110 36.7383 110 37.0032C109.998 37.2671 109.893 37.5196 109.706 37.7062C109.52 37.8928 109.267 37.9983 109.003 38C108.738 38 108.484 37.8952 108.296 37.7084C108.108 37.5217 108.002 37.2682 108 37.0032Z" fill="#858FA3"/>
<path d="M108 49C108 48.8681 108.026 48.7376 108.076 48.6158C108.127 48.4941 108.201 48.3836 108.294 48.2906C108.387 48.1977 108.498 48.1242 108.62 48.0743C108.741 48.0244 108.872 47.9992 109.003 48C109.268 48 109.521 48.1054 109.708 48.2929C109.895 48.4804 110 48.7348 110 49C110 49.2652 109.895 49.5196 109.708 49.7071C109.521 49.8946 109.268 50 109.003 50C108.872 50.0008 108.741 49.9756 108.62 49.9257C108.498 49.8758 108.387 49.8023 108.294 49.7094C108.201 49.6164 108.127 49.5059 108.076 49.3842C108.026 49.2624 108 49.1319 108 49Z" fill="#858FA3"/>
<path d="M108 60.9904C108 60.8598 108.026 60.7305 108.077 60.6099C108.127 60.4893 108.201 60.3799 108.294 60.2878C108.388 60.1958 108.498 60.123 108.62 60.0736C108.742 60.0242 108.872 59.9992 109.003 60C109.268 60 109.521 60.1044 109.708 60.2901C109.895 60.4758 110 60.7277 110 60.9904C110.002 61.1221 109.978 61.2529 109.93 61.3753C109.881 61.4977 109.808 61.6091 109.715 61.7032C109.622 61.7972 109.511 61.8718 109.389 61.9228C109.267 61.9738 109.136 62 109.003 62C108.87 62.0009 108.738 61.9752 108.615 61.9247C108.492 61.8741 108.381 61.7995 108.287 61.7054C108.194 61.6114 108.12 61.4996 108.071 61.3768C108.022 61.254 107.998 61.1226 108 60.9904Z" fill="#858FA3"/>
<path d="M109 74C109.552 74 110 73.5523 110 73C110 72.4477 109.552 72 109 72C108.448 72 108 72.4477 108 73C108 73.5523 108.448 74 109 74Z" fill="#858FA3"/>
<path d="M108 84.9968C108.002 84.7318 108.108 84.4783 108.296 84.2916C108.484 84.1048 108.738 84 109.003 84C109.267 84.0017 109.52 84.1072 109.706 84.2938C109.893 84.4804 109.998 84.7329 110 84.9968C110 85.2617 109.895 85.5159 109.708 85.7039C109.522 85.8919 109.268 85.9983 109.003 86C108.737 86 108.482 85.8943 108.294 85.7062C108.106 85.518 108 85.2629 108 84.9968Z" fill="#858FA3"/>
<path d="M108 97.013C108 96.7443 108.106 96.4867 108.294 96.2967C108.482 96.1067 108.737 96 109.003 96C109.268 96.0017 109.522 96.1092 109.708 96.299C109.895 96.4888 110 96.7454 110 97.013C109.993 97.276 109.886 97.5261 109.7 97.7103C109.513 97.8945 109.264 97.9984 109.003 98C108.742 98.0001 108.49 97.8969 108.303 97.7125C108.115 97.5282 108.007 97.2771 108 97.013Z" fill="#858FA3"/>
<path d="M108 109C108 108.868 108.026 108.738 108.076 108.616C108.127 108.494 108.201 108.384 108.294 108.291C108.387 108.198 108.498 108.124 108.62 108.074C108.741 108.024 108.872 107.999 109.003 108C109.268 108 109.521 108.105 109.708 108.293C109.895 108.48 110 108.735 110 109C110 109.265 109.895 109.52 109.708 109.707C109.521 109.895 109.268 110 109.003 110C108.872 110.001 108.741 109.976 108.62 109.926C108.498 109.876 108.387 109.802 108.294 109.709C108.201 109.616 108.127 109.506 108.076 109.384C108.026 109.262 108 109.132 108 109Z" fill="#858FA3"/>
<path d="M108 121C108 120.868 108.026 120.738 108.076 120.616C108.127 120.494 108.201 120.384 108.294 120.291C108.387 120.198 108.498 120.124 108.62 120.074C108.741 120.024 108.872 119.999 109.003 120C109.268 120 109.521 120.105 109.708 120.293C109.895 120.48 110 120.735 110 121C110 121.131 109.974 121.261 109.924 121.383C109.874 121.504 109.801 121.614 109.708 121.707C109.615 121.8 109.506 121.874 109.385 121.924C109.264 121.974 109.134 122 109.003 122C108.872 122.001 108.741 121.976 108.62 121.926C108.498 121.876 108.387 121.802 108.294 121.709C108.201 121.616 108.127 121.506 108.076 121.384C108.026 121.262 108 121.132 108 121Z" fill="#858FA3"/>
<path d="M109 134C109.552 134 110 133.552 110 133C110 132.448 109.552 132 109 132C108.448 132 108 132.448 108 133C108 133.552 108.448 134 109 134Z" fill="#858FA3"/>
<path d="M120 1C120 0.868136 120.026 0.737574 120.076 0.615828C120.127 0.494083 120.201 0.383558 120.294 0.290616C120.387 0.197675 120.498 0.124153 120.62 0.0742804C120.741 0.0244077 120.872 -0.000829921 121.003 2.08129e-05C121.268 2.08129e-05 121.521 0.105375 121.708 0.292907C121.895 0.48044 122 0.734789 122 1C122 1.26521 121.895 1.51956 121.708 1.70709C121.521 1.89463 121.268 1.99998 121.003 1.99998C120.872 2.00083 120.741 1.97559 120.62 1.92572C120.498 1.87585 120.387 1.80233 120.294 1.70938C120.201 1.61644 120.127 1.50592 120.076 1.38417C120.026 1.26243 120 1.13186 120 1Z" fill="#858FA3"/>
<path d="M121 14C121.552 14 122 13.5523 122 13C122 12.4477 121.552 12 121 12C120.448 12 120 12.4477 120 13C120 13.5523 120.448 14 121 14Z" fill="#858FA3"/>
<path d="M120 25.0032C120 24.7371 120.106 24.482 120.294 24.2938C120.482 24.1057 120.737 24 121.003 24C121.268 24.0017 121.522 24.1081 121.708 24.2961C121.895 24.4841 122 24.7383 122 25.0032C121.998 25.2671 121.893 25.5196 121.706 25.7062C121.52 25.8928 121.267 25.9983 121.003 26C120.738 26 120.484 25.8952 120.296 25.7084C120.108 25.5217 120.002 25.2682 120 25.0032Z" fill="#858FA3"/>
<path d="M120 37.0032C120 36.7371 120.106 36.482 120.294 36.2938C120.482 36.1057 120.737 36 121.003 36C121.268 36.0017 121.522 36.1081 121.708 36.2961C121.895 36.4841 122 36.7383 122 37.0032C121.998 37.2671 121.893 37.5196 121.706 37.7062C121.52 37.8928 121.267 37.9983 121.003 38C120.738 38 120.484 37.8952 120.296 37.7084C120.108 37.5217 120.002 37.2682 120 37.0032Z" fill="#858FA3"/>
<path d="M120 49C120 48.8681 120.026 48.7376 120.076 48.6158C120.127 48.4941 120.201 48.3836 120.294 48.2906C120.387 48.1977 120.498 48.1242 120.62 48.0743C120.741 48.0244 120.872 47.9992 121.003 48C121.268 48 121.521 48.1054 121.708 48.2929C121.895 48.4804 122 48.7348 122 49C122 49.2652 121.895 49.5196 121.708 49.7071C121.521 49.8946 121.268 50 121.003 50C120.872 50.0008 120.741 49.9756 120.62 49.9257C120.498 49.8758 120.387 49.8023 120.294 49.7094C120.201 49.6164 120.127 49.5059 120.076 49.3842C120.026 49.2624 120 49.1319 120 49Z" fill="#858FA3"/>
<path d="M120 60.9904C120 60.8598 120.026 60.7305 120.077 60.6099C120.127 60.4893 120.201 60.3799 120.294 60.2878C120.388 60.1958 120.498 60.123 120.62 60.0736C120.742 60.0242 120.872 59.9992 121.003 60C121.268 60 121.521 60.1044 121.708 60.2901C121.895 60.4758 122 60.7277 122 60.9904C122.002 61.1221 121.978 61.2529 121.93 61.3753C121.881 61.4977 121.808 61.6091 121.715 61.7032C121.622 61.7972 121.511 61.8718 121.389 61.9228C121.267 61.9738 121.136 62 121.003 62C120.87 62.0009 120.738 61.9752 120.615 61.9247C120.492 61.8741 120.381 61.7995 120.287 61.7054C120.194 61.6114 120.12 61.4996 120.071 61.3768C120.022 61.254 119.998 61.1226 120 60.9904Z" fill="#858FA3"/>
<path d="M121 74C121.552 74 122 73.5523 122 73C122 72.4477 121.552 72 121 72C120.448 72 120 72.4477 120 73C120 73.5523 120.448 74 121 74Z" fill="#858FA3"/>
<path d="M120 84.9968C120.002 84.7318 120.108 84.4783 120.296 84.2916C120.484 84.1048 120.738 84 121.003 84C121.267 84.0017 121.52 84.1072 121.706 84.2938C121.893 84.4804 121.998 84.7329 122 84.9968C122 85.2617 121.895 85.5159 121.708 85.7039C121.522 85.8919 121.268 85.9983 121.003 86C120.737 86 120.482 85.8943 120.294 85.7062C120.106 85.518 120 85.2629 120 84.9968Z" fill="#858FA3"/>
<path d="M120 97.013C120 96.7443 120.106 96.4867 120.294 96.2967C120.482 96.1067 120.737 96 121.003 96C121.268 96.0017 121.522 96.1092 121.708 96.299C121.895 96.4888 122 96.7454 122 97.013C121.993 97.276 121.886 97.5261 121.7 97.7103C121.513 97.8945 121.264 97.9984 121.003 98C120.742 98.0001 120.49 97.8969 120.303 97.7125C120.115 97.5282 120.007 97.2771 120 97.013Z" fill="#858FA3"/>
<path d="M120 109C120 108.868 120.026 108.738 120.076 108.616C120.127 108.494 120.201 108.384 120.294 108.291C120.387 108.198 120.498 108.124 120.62 108.074C120.741 108.024 120.872 107.999 121.003 108C121.268 108 121.521 108.105 121.708 108.293C121.895 108.48 122 108.735 122 109C122 109.265 121.895 109.52 121.708 109.707C121.521 109.895 121.268 110 121.003 110C120.872 110.001 120.741 109.976 120.62 109.926C120.498 109.876 120.387 109.802 120.294 109.709C120.201 109.616 120.127 109.506 120.076 109.384C120.026 109.262 120 109.132 120 109Z" fill="#858FA3"/>
<path d="M120 121C120 120.868 120.026 120.738 120.076 120.616C120.127 120.494 120.201 120.384 120.294 120.291C120.387 120.198 120.498 120.124 120.62 120.074C120.741 120.024 120.872 119.999 121.003 120C121.268 120 121.521 120.105 121.708 120.293C121.895 120.48 122 120.735 122 121C122 121.131 121.974 121.261 121.924 121.383C121.874 121.504 121.801 121.614 121.708 121.707C121.615 121.8 121.506 121.874 121.385 121.924C121.264 121.974 121.134 122 121.003 122C120.872 122.001 120.741 121.976 120.62 121.926C120.498 121.876 120.387 121.802 120.294 121.709C120.201 121.616 120.127 121.506 120.076 121.384C120.026 121.262 120 121.132 120 121Z" fill="#858FA3"/>
<path d="M121 134C121.552 134 122 133.552 122 133C122 132.448 121.552 132 121 132C120.448 132 120 132.448 120 133C120 133.552 120.448 134 121 134Z" fill="#858FA3"/>
<path d="M132 1C132 0.868136 132.026 0.737574 132.076 0.615828C132.127 0.494083 132.201 0.383558 132.294 0.290616C132.387 0.197675 132.498 0.124153 132.62 0.0742804C132.741 0.0244077 132.872 -0.000829921 133.003 2.08129e-05C133.268 2.08129e-05 133.521 0.105375 133.708 0.292907C133.895 0.48044 134 0.734789 134 1C134 1.26521 133.895 1.51956 133.708 1.70709C133.521 1.89463 133.268 1.99998 133.003 1.99998C132.872 2.00083 132.741 1.97559 132.62 1.92572C132.498 1.87585 132.387 1.80233 132.294 1.70938C132.201 1.61644 132.127 1.50592 132.076 1.38417C132.026 1.26243 132 1.13186 132 1Z" fill="#858FA3"/>
<path d="M133 14C133.552 14 134 13.5523 134 13C134 12.4477 133.552 12 133 12C132.448 12 132 12.4477 132 13C132 13.5523 132.448 14 133 14Z" fill="#858FA3"/>
<path d="M132 25.0032C132 24.7371 132.106 24.482 132.294 24.2938C132.482 24.1057 132.737 24 133.003 24C133.268 24.0017 133.522 24.1081 133.708 24.2961C133.895 24.4841 134 24.7383 134 25.0032C133.998 25.2671 133.893 25.5196 133.706 25.7062C133.52 25.8928 133.267 25.9983 133.003 26C132.738 26 132.484 25.8952 132.296 25.7084C132.108 25.5217 132.002 25.2682 132 25.0032Z" fill="#858FA3"/>
<path d="M132 37.0032C132 36.7371 132.106 36.482 132.294 36.2938C132.482 36.1057 132.737 36 133.003 36C133.268 36.0017 133.522 36.1081 133.708 36.2961C133.895 36.4841 134 36.7383 134 37.0032C133.998 37.2671 133.893 37.5196 133.706 37.7062C133.52 37.8928 133.267 37.9983 133.003 38C132.738 38 132.484 37.8952 132.296 37.7084C132.108 37.5217 132.002 37.2682 132 37.0032Z" fill="#858FA3"/>
<path d="M132 49C132 48.8681 132.026 48.7376 132.076 48.6158C132.127 48.4941 132.201 48.3836 132.294 48.2906C132.387 48.1977 132.498 48.1242 132.62 48.0743C132.741 48.0244 132.872 47.9992 133.003 48C133.268 48 133.521 48.1054 133.708 48.2929C133.895 48.4804 134 48.7348 134 49C134 49.2652 133.895 49.5196 133.708 49.7071C133.521 49.8946 133.268 50 133.003 50C132.872 50.0008 132.741 49.9756 132.62 49.9257C132.498 49.8758 132.387 49.8023 132.294 49.7094C132.201 49.6164 132.127 49.5059 132.076 49.3842C132.026 49.2624 132 49.1319 132 49Z" fill="#858FA3"/>
<path d="M132 60.9904C132 60.8598 132.026 60.7305 132.077 60.6099C132.127 60.4893 132.201 60.3799 132.294 60.2878C132.388 60.1958 132.498 60.123 132.62 60.0736C132.742 60.0242 132.872 59.9992 133.003 60C133.268 60 133.521 60.1044 133.708 60.2901C133.895 60.4758 134 60.7277 134 60.9904C134.002 61.1221 133.978 61.2529 133.93 61.3753C133.881 61.4977 133.808 61.6091 133.715 61.7032C133.622 61.7972 133.511 61.8718 133.389 61.9228C133.267 61.9738 133.136 62 133.003 62C132.87 62.0009 132.738 61.9752 132.615 61.9247C132.492 61.8741 132.381 61.7995 132.287 61.7054C132.194 61.6114 132.12 61.4996 132.071 61.3768C132.022 61.254 131.998 61.1226 132 60.9904Z" fill="#858FA3"/>
<path d="M133 74C133.552 74 134 73.5523 134 73C134 72.4477 133.552 72 133 72C132.448 72 132 72.4477 132 73C132 73.5523 132.448 74 133 74Z" fill="#858FA3"/>
<path d="M132 84.9968C132.002 84.7318 132.108 84.4783 132.296 84.2916C132.484 84.1048 132.738 84 133.003 84C133.267 84.0017 133.52 84.1072 133.706 84.2938C133.893 84.4804 133.998 84.7329 134 84.9968C134 85.2617 133.895 85.5159 133.708 85.7039C133.522 85.8919 133.268 85.9983 133.003 86C132.737 86 132.482 85.8943 132.294 85.7062C132.106 85.518 132 85.2629 132 84.9968Z" fill="#858FA3"/>
<path d="M132 97.013C132 96.7443 132.106 96.4867 132.294 96.2967C132.482 96.1067 132.737 96 133.003 96C133.268 96.0017 133.522 96.1092 133.708 96.299C133.895 96.4888 134 96.7454 134 97.013C133.993 97.276 133.886 97.5261 133.7 97.7103C133.513 97.8945 133.264 97.9984 133.003 98C132.742 98.0001 132.49 97.8969 132.303 97.7125C132.115 97.5282 132.007 97.2771 132 97.013Z" fill="#858FA3"/>
<path d="M132 109C132 108.868 132.026 108.738 132.076 108.616C132.127 108.494 132.201 108.384 132.294 108.291C132.387 108.198 132.498 108.124 132.62 108.074C132.741 108.024 132.872 107.999 133.003 108C133.268 108 133.521 108.105 133.708 108.293C133.895 108.48 134 108.735 134 109C134 109.265 133.895 109.52 133.708 109.707C133.521 109.895 133.268 110 133.003 110C132.872 110.001 132.741 109.976 132.62 109.926C132.498 109.876 132.387 109.802 132.294 109.709C132.201 109.616 132.127 109.506 132.076 109.384C132.026 109.262 132 109.132 132 109Z" fill="#858FA3"/>
<path d="M132 121C132 120.868 132.026 120.738 132.076 120.616C132.127 120.494 132.201 120.384 132.294 120.291C132.387 120.198 132.498 120.124 132.62 120.074C132.741 120.024 132.872 119.999 133.003 120C133.268 120 133.521 120.105 133.708 120.293C133.895 120.48 134 120.735 134 121C134 121.131 133.974 121.261 133.924 121.383C133.874 121.504 133.801 121.614 133.708 121.707C133.615 121.8 133.506 121.874 133.385 121.924C133.264 121.974 133.134 122 133.003 122C132.872 122.001 132.741 121.976 132.62 121.926C132.498 121.876 132.387 121.802 132.294 121.709C132.201 121.616 132.127 121.506 132.076 121.384C132.026 121.262 132 121.132 132 121Z" fill="#858FA3"/>
<path d="M133 134C133.552 134 134 133.552 134 133C134 132.448 133.552 132 133 132C132.448 132 132 132.448 132 133C132 133.552 132.448 134 133 134Z" fill="#858FA3"/>
<path d="M144 1C144 0.868136 144.026 0.737574 144.076 0.615828C144.127 0.494083 144.201 0.383558 144.294 0.290616C144.387 0.197675 144.498 0.124153 144.62 0.0742804C144.741 0.0244077 144.872 -0.000829921 145.003 2.08129e-05C145.268 2.08129e-05 145.521 0.105375 145.708 0.292907C145.895 0.48044 146 0.734789 146 1C146 1.26521 145.895 1.51956 145.708 1.70709C145.521 1.89463 145.268 1.99998 145.003 1.99998C144.872 2.00083 144.741 1.97559 144.62 1.92572C144.498 1.87585 144.387 1.80233 144.294 1.70938C144.201 1.61644 144.127 1.50592 144.076 1.38417C144.026 1.26243 144 1.13186 144 1Z" fill="#858FA3"/>
<path d="M145 14C145.552 14 146 13.5523 146 13C146 12.4477 145.552 12 145 12C144.448 12 144 12.4477 144 13C144 13.5523 144.448 14 145 14Z" fill="#858FA3"/>
<path d="M144 25.0032C144 24.7371 144.106 24.482 144.294 24.2938C144.482 24.1057 144.737 24 145.003 24C145.268 24.0017 145.522 24.1081 145.708 24.2961C145.895 24.4841 146 24.7383 146 25.0032C145.998 25.2671 145.893 25.5196 145.706 25.7062C145.52 25.8928 145.267 25.9983 145.003 26C144.738 26 144.484 25.8952 144.296 25.7084C144.108 25.5217 144.002 25.2682 144 25.0032Z" fill="#858FA3"/>
<path d="M144 37.0032C144 36.7371 144.106 36.482 144.294 36.2938C144.482 36.1057 144.737 36 145.003 36C145.268 36.0017 145.522 36.1081 145.708 36.2961C145.895 36.4841 146 36.7383 146 37.0032C145.998 37.2671 145.893 37.5196 145.706 37.7062C145.52 37.8928 145.267 37.9983 145.003 38C144.738 38 144.484 37.8952 144.296 37.7084C144.108 37.5217 144.002 37.2682 144 37.0032Z" fill="#858FA3"/>
<path d="M144 49C144 48.8681 144.026 48.7376 144.076 48.6158C144.127 48.4941 144.201 48.3836 144.294 48.2906C144.387 48.1977 144.498 48.1242 144.62 48.0743C144.741 48.0244 144.872 47.9992 145.003 48C145.268 48 145.521 48.1054 145.708 48.2929C145.895 48.4804 146 48.7348 146 49C146 49.2652 145.895 49.5196 145.708 49.7071C145.521 49.8946 145.268 50 145.003 50C144.872 50.0008 144.741 49.9756 144.62 49.9257C144.498 49.8758 144.387 49.8023 144.294 49.7094C144.201 49.6164 144.127 49.5059 144.076 49.3842C144.026 49.2624 144 49.1319 144 49Z" fill="#858FA3"/>
<path d="M144 60.9904C144 60.8598 144.026 60.7305 144.077 60.6099C144.127 60.4893 144.201 60.3799 144.294 60.2878C144.388 60.1958 144.498 60.123 144.62 60.0736C144.742 60.0242 144.872 59.9992 145.003 60C145.268 60 145.521 60.1044 145.708 60.2901C145.895 60.4758 146 60.7277 146 60.9904C146.002 61.1221 145.978 61.2529 145.93 61.3753C145.881 61.4977 145.808 61.6091 145.715 61.7032C145.622 61.7972 145.511 61.8718 145.389 61.9228C145.267 61.9738 145.136 62 145.003 62C144.87 62.0009 144.738 61.9752 144.615 61.9247C144.492 61.8741 144.381 61.7995 144.287 61.7054C144.194 61.6114 144.12 61.4996 144.071 61.3768C144.022 61.254 143.998 61.1226 144 60.9904Z" fill="#858FA3"/>
<path d="M145 74C145.552 74 146 73.5523 146 73C146 72.4477 145.552 72 145 72C144.448 72 144 72.4477 144 73C144 73.5523 144.448 74 145 74Z" fill="#858FA3"/>
<path d="M144 84.9968C144.002 84.7318 144.108 84.4783 144.296 84.2916C144.484 84.1048 144.738 84 145.003 84C145.267 84.0017 145.52 84.1072 145.706 84.2938C145.893 84.4804 145.998 84.7329 146 84.9968C146 85.2617 145.895 85.5159 145.708 85.7039C145.522 85.8919 145.268 85.9983 145.003 86C144.737 86 144.482 85.8943 144.294 85.7062C144.106 85.518 144 85.2629 144 84.9968Z" fill="#858FA3"/>
<path d="M144 97.013C144 96.7443 144.106 96.4867 144.294 96.2967C144.482 96.1067 144.737 96 145.003 96C145.268 96.0017 145.522 96.1092 145.708 96.299C145.895 96.4888 146 96.7454 146 97.013C145.993 97.276 145.886 97.5261 145.7 97.7103C145.513 97.8945 145.264 97.9984 145.003 98C144.742 98.0001 144.49 97.8969 144.303 97.7125C144.115 97.5282 144.007 97.2771 144 97.013Z" fill="#858FA3"/>
<path d="M144 109C144 108.868 144.026 108.738 144.076 108.616C144.127 108.494 144.201 108.384 144.294 108.291C144.387 108.198 144.498 108.124 144.62 108.074C144.741 108.024 144.872 107.999 145.003 108C145.268 108 145.521 108.105 145.708 108.293C145.895 108.48 146 108.735 146 109C146 109.265 145.895 109.52 145.708 109.707C145.521 109.895 145.268 110 145.003 110C144.872 110.001 144.741 109.976 144.62 109.926C144.498 109.876 144.387 109.802 144.294 109.709C144.201 109.616 144.127 109.506 144.076 109.384C144.026 109.262 144 109.132 144 109Z" fill="#858FA3"/>
<path d="M144 121C144 120.868 144.026 120.738 144.076 120.616C144.127 120.494 144.201 120.384 144.294 120.291C144.387 120.198 144.498 120.124 144.62 120.074C144.741 120.024 144.872 119.999 145.003 120C145.268 120 145.521 120.105 145.708 120.293C145.895 120.48 146 120.735 146 121C146 121.131 145.974 121.261 145.924 121.383C145.874 121.504 145.801 121.614 145.708 121.707C145.615 121.8 145.506 121.874 145.385 121.924C145.264 121.974 145.134 122 145.003 122C144.872 122.001 144.741 121.976 144.62 121.926C144.498 121.876 144.387 121.802 144.294 121.709C144.201 121.616 144.127 121.506 144.076 121.384C144.026 121.262 144 121.132 144 121Z" fill="#858FA3"/>
<path d="M145 134C145.552 134 146 133.552 146 133C146 132.448 145.552 132 145 132C144.448 132 144 132.448 144 133C144 133.552 144.448 134 145 134Z" fill="#858FA3"/>
<path d="M156 1C156 0.868136 156.026 0.737574 156.076 0.615828C156.127 0.494083 156.201 0.383558 156.294 0.290616C156.387 0.197675 156.498 0.124153 156.62 0.0742804C156.741 0.0244077 156.872 -0.000829921 157.003 2.08129e-05C157.268 2.08129e-05 157.521 0.105375 157.708 0.292907C157.895 0.48044 158 0.734789 158 1C158 1.26521 157.895 1.51956 157.708 1.70709C157.521 1.89463 157.268 1.99998 157.003 1.99998C156.872 2.00083 156.741 1.97559 156.62 1.92572C156.498 1.87585 156.387 1.80233 156.294 1.70938C156.201 1.61644 156.127 1.50592 156.076 1.38417C156.026 1.26243 156 1.13186 156 1Z" fill="#858FA3"/>
<path d="M157 14C157.552 14 158 13.5523 158 13C158 12.4477 157.552 12 157 12C156.448 12 156 12.4477 156 13C156 13.5523 156.448 14 157 14Z" fill="#858FA3"/>
<path d="M156 25.0032C156 24.7371 156.106 24.482 156.294 24.2938C156.482 24.1057 156.737 24 157.003 24C157.268 24.0017 157.522 24.1081 157.708 24.2961C157.895 24.4841 158 24.7383 158 25.0032C157.998 25.2671 157.893 25.5196 157.706 25.7062C157.52 25.8928 157.267 25.9983 157.003 26C156.738 26 156.484 25.8952 156.296 25.7084C156.108 25.5217 156.002 25.2682 156 25.0032Z" fill="#858FA3"/>
<path d="M156 37.0032C156 36.7371 156.106 36.482 156.294 36.2938C156.482 36.1057 156.737 36 157.003 36C157.268 36.0017 157.522 36.1081 157.708 36.2961C157.895 36.4841 158 36.7383 158 37.0032C157.998 37.2671 157.893 37.5196 157.706 37.7062C157.52 37.8928 157.267 37.9983 157.003 38C156.738 38 156.484 37.8952 156.296 37.7084C156.108 37.5217 156.002 37.2682 156 37.0032Z" fill="#858FA3"/>
<path d="M156 49C156 48.8681 156.026 48.7376 156.076 48.6158C156.127 48.4941 156.201 48.3836 156.294 48.2906C156.387 48.1977 156.498 48.1242 156.62 48.0743C156.741 48.0244 156.872 47.9992 157.003 48C157.268 48 157.521 48.1054 157.708 48.2929C157.895 48.4804 158 48.7348 158 49C158 49.2652 157.895 49.5196 157.708 49.7071C157.521 49.8946 157.268 50 157.003 50C156.872 50.0008 156.741 49.9756 156.62 49.9257C156.498 49.8758 156.387 49.8023 156.294 49.7094C156.201 49.6164 156.127 49.5059 156.076 49.3842C156.026 49.2624 156 49.1319 156 49Z" fill="#858FA3"/>
<path d="M156 60.9904C156 60.8598 156.026 60.7305 156.077 60.6099C156.127 60.4893 156.201 60.3799 156.294 60.2878C156.388 60.1958 156.498 60.123 156.62 60.0736C156.742 60.0242 156.872 59.9992 157.003 60C157.268 60 157.521 60.1044 157.708 60.2901C157.895 60.4758 158 60.7277 158 60.9904C158.002 61.1221 157.978 61.2529 157.93 61.3753C157.881 61.4977 157.808 61.6091 157.715 61.7032C157.622 61.7972 157.511 61.8718 157.389 61.9228C157.267 61.9738 157.136 62 157.003 62C156.87 62.0009 156.738 61.9752 156.615 61.9247C156.492 61.8741 156.381 61.7995 156.287 61.7054C156.194 61.6114 156.12 61.4996 156.071 61.3768C156.022 61.254 155.998 61.1226 156 60.9904Z" fill="#858FA3"/>
<path d="M157 74C157.552 74 158 73.5523 158 73C158 72.4477 157.552 72 157 72C156.448 72 156 72.4477 156 73C156 73.5523 156.448 74 157 74Z" fill="#858FA3"/>
<path d="M156 84.9968C156.002 84.7318 156.108 84.4783 156.296 84.2916C156.484 84.1048 156.738 84 157.003 84C157.267 84.0017 157.52 84.1072 157.706 84.2938C157.893 84.4804 157.998 84.7329 158 84.9968C158 85.2617 157.895 85.5159 157.708 85.7039C157.522 85.8919 157.268 85.9983 157.003 86C156.737 86 156.482 85.8943 156.294 85.7062C156.106 85.518 156 85.2629 156 84.9968Z" fill="#858FA3"/>
<path d="M156 97.013C156 96.7443 156.106 96.4867 156.294 96.2967C156.482 96.1067 156.737 96 157.003 96C157.268 96.0017 157.522 96.1092 157.708 96.299C157.895 96.4888 158 96.7454 158 97.013C157.993 97.276 157.886 97.5261 157.7 97.7103C157.513 97.8945 157.264 97.9984 157.003 98C156.742 98.0001 156.49 97.8969 156.303 97.7125C156.115 97.5282 156.007 97.2771 156 97.013Z" fill="#858FA3"/>
<path d="M156 109C156 108.868 156.026 108.738 156.076 108.616C156.127 108.494 156.201 108.384 156.294 108.291C156.387 108.198 156.498 108.124 156.62 108.074C156.741 108.024 156.872 107.999 157.003 108C157.268 108 157.521 108.105 157.708 108.293C157.895 108.48 158 108.735 158 109C158 109.265 157.895 109.52 157.708 109.707C157.521 109.895 157.268 110 157.003 110C156.872 110.001 156.741 109.976 156.62 109.926C156.498 109.876 156.387 109.802 156.294 109.709C156.201 109.616 156.127 109.506 156.076 109.384C156.026 109.262 156 109.132 156 109Z" fill="#858FA3"/>
<path d="M156 121C156 120.868 156.026 120.738 156.076 120.616C156.127 120.494 156.201 120.384 156.294 120.291C156.387 120.198 156.498 120.124 156.62 120.074C156.741 120.024 156.872 119.999 157.003 120C157.268 120 157.521 120.105 157.708 120.293C157.895 120.48 158 120.735 158 121C158 121.131 157.974 121.261 157.924 121.383C157.874 121.504 157.801 121.614 157.708 121.707C157.615 121.8 157.506 121.874 157.385 121.924C157.264 121.974 157.134 122 157.003 122C156.872 122.001 156.741 121.976 156.62 121.926C156.498 121.876 156.387 121.802 156.294 121.709C156.201 121.616 156.127 121.506 156.076 121.384C156.026 121.262 156 121.132 156 121Z" fill="#858FA3"/>
<path d="M157 134C157.552 134 158 133.552 158 133C158 132.448 157.552 132 157 132C156.448 132 156 132.448 156 133C156 133.552 156.448 134 157 134Z" fill="#858FA3"/>
<path d="M168 1C168 0.868136 168.026 0.737574 168.076 0.615828C168.127 0.494083 168.201 0.383558 168.294 0.290616C168.387 0.197675 168.498 0.124153 168.62 0.0742804C168.741 0.0244077 168.872 -0.000829921 169.003 2.08129e-05C169.268 2.08129e-05 169.521 0.105375 169.708 0.292907C169.895 0.48044 170 0.734789 170 1C170 1.26521 169.895 1.51956 169.708 1.70709C169.521 1.89463 169.268 1.99998 169.003 1.99998C168.872 2.00083 168.741 1.97559 168.62 1.92572C168.498 1.87585 168.387 1.80233 168.294 1.70938C168.201 1.61644 168.127 1.50592 168.076 1.38417C168.026 1.26243 168 1.13186 168 1Z" fill="#858FA3"/>
<path d="M169 14C169.552 14 170 13.5523 170 13C170 12.4477 169.552 12 169 12C168.448 12 168 12.4477 168 13C168 13.5523 168.448 14 169 14Z" fill="#858FA3"/>
<path d="M168 25.0032C168 24.7371 168.106 24.482 168.294 24.2938C168.482 24.1057 168.737 24 169.003 24C169.268 24.0017 169.522 24.1081 169.708 24.2961C169.895 24.4841 170 24.7383 170 25.0032C169.998 25.2671 169.893 25.5196 169.706 25.7062C169.52 25.8928 169.267 25.9983 169.003 26C168.738 26 168.484 25.8952 168.296 25.7084C168.108 25.5217 168.002 25.2682 168 25.0032Z" fill="#858FA3"/>
<path d="M168 37.0032C168 36.7371 168.106 36.482 168.294 36.2938C168.482 36.1057 168.737 36 169.003 36C169.268 36.0017 169.522 36.1081 169.708 36.2961C169.895 36.4841 170 36.7383 170 37.0032C169.998 37.2671 169.893 37.5196 169.706 37.7062C169.52 37.8928 169.267 37.9983 169.003 38C168.738 38 168.484 37.8952 168.296 37.7084C168.108 37.5217 168.002 37.2682 168 37.0032Z" fill="#858FA3"/>
<path d="M168 49C168 48.8681 168.026 48.7376 168.076 48.6158C168.127 48.4941 168.201 48.3836 168.294 48.2906C168.387 48.1977 168.498 48.1242 168.62 48.0743C168.741 48.0244 168.872 47.9992 169.003 48C169.268 48 169.521 48.1054 169.708 48.2929C169.895 48.4804 170 48.7348 170 49C170 49.2652 169.895 49.5196 169.708 49.7071C169.521 49.8946 169.268 50 169.003 50C168.872 50.0008 168.741 49.9756 168.62 49.9257C168.498 49.8758 168.387 49.8023 168.294 49.7094C168.201 49.6164 168.127 49.5059 168.076 49.3842C168.026 49.2624 168 49.1319 168 49Z" fill="#858FA3"/>
<path d="M168 60.9904C168 60.8598 168.026 60.7305 168.077 60.6099C168.127 60.4893 168.201 60.3799 168.294 60.2878C168.388 60.1958 168.498 60.123 168.62 60.0736C168.742 60.0242 168.872 59.9992 169.003 60C169.268 60 169.521 60.1044 169.708 60.2901C169.895 60.4758 170 60.7277 170 60.9904C170.002 61.1221 169.978 61.2529 169.93 61.3753C169.881 61.4977 169.808 61.6091 169.715 61.7032C169.622 61.7972 169.511 61.8718 169.389 61.9228C169.267 61.9738 169.136 62 169.003 62C168.87 62.0009 168.738 61.9752 168.615 61.9247C168.492 61.8741 168.381 61.7995 168.287 61.7054C168.194 61.6114 168.12 61.4996 168.071 61.3768C168.022 61.254 167.998 61.1226 168 60.9904Z" fill="#858FA3"/>
<path d="M169 74C169.552 74 170 73.5523 170 73C170 72.4477 169.552 72 169 72C168.448 72 168 72.4477 168 73C168 73.5523 168.448 74 169 74Z" fill="#858FA3"/>
<path d="M168 84.9968C168.002 84.7318 168.108 84.4783 168.296 84.2916C168.484 84.1048 168.738 84 169.003 84C169.267 84.0017 169.52 84.1072 169.706 84.2938C169.893 84.4804 169.998 84.7329 170 84.9968C170 85.2617 169.895 85.5159 169.708 85.7039C169.522 85.8919 169.268 85.9983 169.003 86C168.737 86 168.482 85.8943 168.294 85.7062C168.106 85.518 168 85.2629 168 84.9968Z" fill="#858FA3"/>
<path d="M168 97.013C168 96.7443 168.106 96.4867 168.294 96.2967C168.482 96.1067 168.737 96 169.003 96C169.268 96.0017 169.522 96.1092 169.708 96.299C169.895 96.4888 170 96.7454 170 97.013C169.993 97.276 169.886 97.5261 169.7 97.7103C169.513 97.8945 169.264 97.9984 169.003 98C168.742 98.0001 168.49 97.8969 168.303 97.7125C168.115 97.5282 168.007 97.2771 168 97.013Z" fill="#858FA3"/>
<path d="M168 109C168 108.868 168.026 108.738 168.076 108.616C168.127 108.494 168.201 108.384 168.294 108.291C168.387 108.198 168.498 108.124 168.62 108.074C168.741 108.024 168.872 107.999 169.003 108C169.268 108 169.521 108.105 169.708 108.293C169.895 108.48 170 108.735 170 109C170 109.265 169.895 109.52 169.708 109.707C169.521 109.895 169.268 110 169.003 110C168.872 110.001 168.741 109.976 168.62 109.926C168.498 109.876 168.387 109.802 168.294 109.709C168.201 109.616 168.127 109.506 168.076 109.384C168.026 109.262 168 109.132 168 109Z" fill="#858FA3"/>
<path d="M168 121C168 120.868 168.026 120.738 168.076 120.616C168.127 120.494 168.201 120.384 168.294 120.291C168.387 120.198 168.498 120.124 168.62 120.074C168.741 120.024 168.872 119.999 169.003 120C169.268 120 169.521 120.105 169.708 120.293C169.895 120.48 170 120.735 170 121C170 121.131 169.974 121.261 169.924 121.383C169.874 121.504 169.801 121.614 169.708 121.707C169.615 121.8 169.506 121.874 169.385 121.924C169.264 121.974 169.134 122 169.003 122C168.872 122.001 168.741 121.976 168.62 121.926C168.498 121.876 168.387 121.802 168.294 121.709C168.201 121.616 168.127 121.506 168.076 121.384C168.026 121.262 168 121.132 168 121Z" fill="#858FA3"/>
<path d="M169 134C169.552 134 170 133.552 170 133C170 132.448 169.552 132 169 132C168.448 132 168 132.448 168 133C168 133.552 168.448 134 169 134Z" fill="#858FA3"/>
</svg>
