<svg width="24" height="24" viewBox="0 0 24 24" xmlns="http://www.w3.org/2000/svg">
  <path d="M12 5.99995c3.79 0 7.17 2.13 8.82 5.50005-.59 1.22-1.42 2.27-2.41 3.12l1.41 1.41c1.39-1.23 2.49-2.77 3.18-4.53-1.73-4.39005-6-7.50005-11-7.50005-1.27 0-2.49.2-3.64.57l1.65 1.65c.65-.13 1.31-.22 1.99-.22Zm-1.07 1.14 2.07 2.07c.57.25 1.03.71 1.28 1.28005l2.07 2.07c.08-.34.14-.7.14-1.07.01-2.48005-2.01-4.49005-4.49-4.49005-.37 0-.72.05-1.07.14Zm-8.92-3.27 2.68 2.68C3.06 7.82995 1.77 9.52995 1 11.5 2.73 15.89 7 19 12 19c1.52 0 2.98-.29 4.32-.82l3.42 3.42 1.41-1.41L3.42 2.44995l-1.41 1.42ZM9.51 11.37l2.61 2.61c-.04.01-.08.02-.12.02-1.38 0-2.5-1.12-2.5-2.5 0-.05.01-.08.01-.13Zm-3.4-3.40005 1.75 1.75C7.63 10.27 7.5 10.87 7.5 11.5c0 2.48 2.02 4.5 4.5 4.5.63 0 1.23-.13 1.77-.36l.98.98c-.88.24-1.8.38-2.75.38-3.79 0-7.17-2.13-8.82-5.5.7-1.43 1.72-2.61005 2.93-3.53005Z" />
</svg>
