<svg width="22" height="22" viewBox="0 0 22 22" fill="none" xmlns="http://www.w3.org/2000/svg"><path d="m.29507 11.3708 4.4797-4.5107V5.84723c0-.06753-.08047-.09454-.12071-.05402L.0536483 10.4254C.0268237 10.4524 0 10.5065 0 10.547v.7022c.0134123.1621.187771.2296.29507.1216ZM.29507 13.9641l4.4797-4.51063V8.25153L.0536483 13.0053C.0268237 13.0323 0 13.0863 0 13.1268v.7158c.0134123.1621.187771.2296.29507.1215ZM.29507 16.5569l4.4797-4.5107v-1.202L.0536483 15.598C.0268237 15.625 0 15.679 0 15.7195v.7158c.0134123.1621.187771.2296.29507.1216ZM.29507 19.1503l4.4797-4.5107v-1.2019L.0536483 18.1914C.0268237 18.2185 0 18.2725 0 18.313v.7158c.0134123.162.187771.2295.29507.1215ZM4.77477 16.6654v-.6348L.0536483 20.7844C.0268237 20.8114 0 20.8654 0 20.9059v.7158c0 .1486.187771.2296.29507.1216l4.64065-4.6728c-.09389-.0945-.16095-.2431-.16095-.4051ZM6.0882 17.3133l-4.35899 4.3891c-.1073.1081-.02682.2971.12071.2971h.71085c.04024 0 .09389-.0135.12071-.054l4.61383-4.6457H6.0882v.0135ZM8.66437 17.3133l-4.35899 4.3891c-.1073.1081-.02682.2971.12071.2971h.71085c.04024 0 .09389-.0135.12072-.054l4.61382-4.6457H8.66437v.0135ZM11.2403 17.3133l-4.35899 4.3891c-.1073.1081-.02682.2971.12071.2971h.71085c.04024 0 .09389-.0135.12071-.054l4.61382-4.6457h-1.2071v.0135ZM14.8331 17.314h-1.0193l-4.359 4.3891c-.1073.108-.02683.2971.12071.2971h.71089c.0402 0 .0938-.0135.1207-.054l4.4797-4.5107c.0536-.054.0134-.1215-.0537-.1215Z" fill="#FD961E"/><path d="m21.7413 6.67147-.5902-.59422c-.1609-.16206-.1609-.44566 0-.60772l.5768-.58072c.0804-.08103.1207-.18907.1207-.31061L21.8217.850816c0-.10804-.0402-.21608-.1207-.29711l-.4292-.432162C21.1914.0405142 21.0841 0 20.9634 0H10.5822c-.1072 0-.228.0405142-.3084.121544L5.80748 4.61871c-.06707.06753-.01342.17557.06706.17557H15.746c.1743 0 .3353.06752.456.18907l.7243.72927c.1207.12155.1877.2836.1877.45917v3.4978c0 .17556-.067.33761-.1877.45921l-.4561.4591c-.2548.2566-.2548.6618 0 .9049l.4561.4591c.1207.1216.1877.2836.1877.4592v2.6875c0 .0945.1073.1351.1744.0675l4.4529-4.4836c.0804-.0811.1207-.1891.1207-.3107V6.9956c.0134-.13505-.0403-.2431-.1207-.32413Z" fill="#5583E2"/></svg>