<svg width="64" height="86" viewBox="0 0 64 86" fill="none" xmlns="http://www.w3.org/2000/svg"><path d="M1 1h48l14 14v70H1V1Z" fill="#D53333" stroke="#212730" stroke-width=".6" stroke-linecap="round"/><path d="M4 4h42v14h14v64H4V4Z" fill="#fff" stroke="#000" stroke-width=".6" stroke-linecap="round"/><path fill-rule="evenodd" clip-rule="evenodd" d="M22.6452 14 24 15.3548 18.3549 21l5.6452 5.6451L22.6452 28 17 22.3548 11.3548 28 10 26.6451 15.6452 21 10 15.3548 11.3549 14 17 19.6451 22.6452 14Z" fill="#D43333"/><path fill="#E9EBF2" d="M10 40h44v3H10zM10 61h44v3H10zM10 47h26v3H10zM10 54h26v3H10zM40 47h14v3H40zM40 54h14v3H40z"/></svg>