<svg width="58" height="42" viewBox="0 0 58 42" fill="none" xmlns="http://www.w3.org/2000/svg">
  <circle cx="35" cy="11" r="11" fill="#FFE6B6"/>
  <circle cx="23" cy="15" r="8.25" stroke="#212730" stroke-width="1.5"/>
  <circle cx="41" cy="21" r="5.25" stroke="#212730" stroke-width="1.5"/>
  <path fill-rule="evenodd" clip-rule="evenodd" d="M42.902 38h9c.5445-3-.9148-9-11.1073-9-1.7367 0-3.2324.1742-4.5174.478 1.1189.2693 2.0649.6403 2.8612 1.0821.5202-.0393 1.0717-.0601 1.6562-.0601 4.805 0 7.2297 1.4052 8.4302 2.8383.8466 1.0105 1.1957 2.1649 1.2632 3.1617h-7.4978c.029.5463-.0077 1.056-.0883 1.5Z" fill="#212730"/>
  <path d="M39.2041 40.25H5.75196c-.04428-1.9451.61952-4.5965 2.78643-6.8559C10.9542 30.8753 15.3308 28.75 22.9482 28.75c7.6217 0 11.8143 2.1267 14.0161 4.6213 1.9946 2.26 2.4481 4.925 2.2398 6.8787Z" stroke="#212730" stroke-width="1.5"/>
</svg>
