<svg width="24" height="24" viewBox="0 0 24 24" xmlns="http://www.w3.org/2000/svg">
  <path fill-rule="evenodd" clip-rule="evenodd" d="M14.4767 2.1h4.4122C20.05 2.1 21 3.045 21 4.2v6.8538L22 12.1v10.2c0 .935-.7313 1.7-1.625 1.7h-9.7581C9.72312 24 9 23.235 9 22.3V21H4.11111c-.14778 0-.285-.0105-.42222-.0315-.41167-.084-.78111-.294-1.06611-.5775-.19-.1995-.34834-.42-.45389-.672C2.06333 19.467 2 19.1835 2 18.9V4.2c0-.294.06333-.567.16889-.8085.10555-.252.26389-.483.45389-.672.285-.2835.65444-.4935 1.06611-.5775.13722-.0315.27444-.042.42222-.042h4.41222C8.96667.882 10.1278 0 11.5 0c1.3722 0 2.5333.882 2.9767 2.1ZM11 21v1h9v-9h-3.5V9H11v12Zm-2-2H4V4h15v4.96154L17.125 7h-6.5C9.73125 7 9 7.765 9 8.7V19Zm2.5-17.2875c.4328 0 .7917.357.7917.7875s-.3589.7875-.7917.7875c-.4328 0-.7917-.357-.7917-.7875s.3589-.7875.7917-.7875Z" />
</svg>
