<svg width="507" height="608" viewBox="0 0 507 608" fill="none" xmlns="http://www.w3.org/2000/svg">
<path d="M317.557 426.985L392.896 133.084H465.096C466.796 148.257 470.197 181.662 470.197 193.905V430.124H412.516L410.554 248.447L376.023 426.985H317.557Z" fill="#5583E2"/>
<path fill-rule="evenodd" clip-rule="evenodd" d="M392.591 132.692H465.447L465.486 133.04C467.185 148.204 470.589 181.635 470.589 193.905V430.516H412.127L410.203 252.326L376.347 427.377H317.051L392.591 132.692ZM393.2 133.476L318.062 426.592H375.699L410.168 248.373L410.946 248.443L412.903 429.732H469.804V193.905C469.804 181.782 466.458 148.814 464.745 133.476H393.2Z" fill="#212730"/>
<path d="M487.855 122.49L462.349 120.92V137.4L388.972 132.692L390.149 109.933L378.77 108.756C378.77 108.756 379.501 79.3852 393.288 64.4158C407.022 49.5049 415.603 45.8475 436.451 47.1506C467.843 49.1125 486.677 60.4919 489.032 73.4408C490.971 84.1084 489.947 110.325 487.855 122.49Z" fill="white"/>
<path fill-rule="evenodd" clip-rule="evenodd" d="M412.055 49.3391C418.604 46.6911 426.031 46.1061 436.476 46.7589C452.21 47.7423 464.824 51.0868 473.814 55.8284C482.795 60.5658 488.211 66.7296 489.418 73.3705C490.396 78.7482 490.623 88.0053 490.348 97.4154C490.072 106.832 489.292 116.448 488.242 122.556L488.182 122.903L462.742 121.337V137.819L388.56 133.058L389.738 110.285L378.369 109.109L378.378 108.746L378.77 108.756C378.378 108.746 378.378 108.746 378.378 108.746L378.378 108.74L378.379 108.723L378.381 108.659C378.382 108.602 378.385 108.517 378.39 108.407C378.398 108.186 378.413 107.861 378.437 107.443C378.484 106.606 378.567 105.395 378.709 103.896C378.994 100.898 379.518 96.7439 380.475 92.1198C382.385 82.8866 386.032 71.7148 393 64.1499C399.88 56.6803 405.506 51.9872 412.055 49.3391ZM379.175 108.403L390.17 109.541H394.858C395.075 109.541 395.251 109.716 395.251 109.933C395.251 110.15 395.075 110.325 394.858 110.325H390.522L389.384 132.325L461.957 136.982V121.281L448.191 120.134C447.975 120.116 447.814 119.926 447.832 119.71C447.85 119.494 448.04 119.334 448.256 119.352L462.382 120.529L487.527 122.076C488.539 116.005 489.294 106.615 489.563 97.3925C489.838 87.9861 489.608 78.8008 488.646 73.5109C487.499 67.203 482.32 61.2026 473.448 56.5226C464.583 51.8468 452.085 48.5207 436.427 47.5421C426.024 46.8919 418.736 47.4841 412.349 50.0667C405.962 52.6493 400.431 57.2403 393.577 64.6815C386.757 72.086 383.145 83.0843 381.243 92.2788C380.294 96.8686 379.773 100.993 379.49 103.97C379.349 105.458 379.267 106.659 379.22 107.487C379.198 107.879 379.184 108.188 379.175 108.403Z" fill="#212730"/>
<path d="M296.41 166.83C292.879 166.045 291.702 157.412 291.702 157.412C286.47 154.535 276.163 148.309 276.791 146.425C277.419 144.542 289.347 149.565 295.233 152.311C287.647 148.387 272.71 140.069 273.652 138.185C274.546 136.396 287.784 142.254 295.274 145.872C287.432 142.023 273.932 134.784 274.829 132.692C275.77 130.494 288.824 136.223 295.233 139.362C289.478 136.485 278.282 130.18 279.537 127.983C280.793 125.786 292.879 132.038 298.765 135.438C299.419 137.4 300.648 141.56 300.334 145.641C312.891 146.175 341.928 144.856 351.737 132.692C355.087 128.538 356.315 114.119 357.231 107.579L390.584 109.933C391.168 161.366 341.356 176.818 296.41 166.83Z" fill="white"/>
<path d="M300.334 145.641C300.648 141.56 299.419 137.4 298.765 135.438C292.879 132.038 280.793 125.786 279.537 127.983C278.282 130.18 289.478 136.485 295.233 139.362C288.824 136.223 275.77 130.494 274.829 132.692C273.887 134.889 288.824 142.763 296.41 146.425C289.216 142.894 274.594 136.302 273.652 138.185C272.71 140.069 287.647 148.387 295.233 152.311C289.347 149.565 277.419 144.542 276.791 146.425C276.163 148.309 286.47 154.535 291.702 157.412C291.702 157.412 292.879 166.045 296.41 166.83C341.356 176.818 391.168 161.366 390.584 109.933L357.231 107.579C356.315 114.119 355.087 128.538 351.737 132.692C341.928 144.856 312.891 146.175 300.334 145.641ZM300.334 145.641C299.942 150.742 300.334 160.944 298.765 160.159" stroke="#212730"/>
<path d="M429.389 41.2647C426.878 36.2421 428.211 25.5691 432.921 14.9745C434.925 10.4652 438.022 9.10052 444.3 9.48104C454.895 10.1232 456.464 19.6832 456.072 24.3919C458.034 23.2147 461.958 23.6071 462.35 27.9234C462.664 31.3764 459.08 32.7629 457.249 33.0245L456.072 50.6821C456.203 51.4669 454.659 53.7427 447.439 56.5679C440.219 59.3931 435.013 57.7451 433.313 56.5679V45.3885C431.764 44.4844 430.338 43.1619 429.389 41.2647Z" fill="white"/>
<path d="M432.099 7.51908C431.471 10.6582 433.145 12.751 434.061 13.4049C435.892 12.097 441.046 10.1089 447.01 12.6202C452.974 15.1315 455.25 22.5607 455.642 25.9615L459.959 23.9995C460.482 20.5988 461.528 17.3468 461.528 13.0126C461.528 9.08865 458.782 5.16473 447.402 2.02561C436.023 -1.11352 432.884 3.59517 432.099 7.51908Z" fill="#212730" stroke="#212730"/>
<path fill-rule="evenodd" clip-rule="evenodd" d="M436.839 10.0395C438.738 9.13974 441.162 8.89777 444.323 9.08938C449.762 9.41899 452.921 12.0516 454.65 15.2237C456.211 18.0874 456.598 21.3686 456.504 23.7478C457.523 23.355 458.8 23.293 459.94 23.7314C461.366 24.2798 462.532 25.5931 462.74 27.8879C462.913 29.783 462.004 31.1144 460.838 31.9851C459.807 32.7555 458.56 33.181 457.619 33.3602L456.466 50.669C456.501 50.9948 456.37 51.3677 456.122 51.7494C455.853 52.1628 455.414 52.639 454.757 53.166C453.443 54.2202 451.212 55.5129 447.582 56.9334C440.258 59.7992 434.912 58.1523 433.089 56.8906C432.983 56.8173 432.92 56.6967 432.92 56.568V45.6112C431.392 44.679 429.986 43.3364 429.038 41.4402C427.729 38.8234 427.446 34.8042 428.058 30.1579C428.671 25.4957 430.194 20.1425 432.562 14.8152C433.59 12.5008 434.922 10.9477 436.839 10.0395ZM433.705 46.05V56.356C435.454 57.4428 440.416 58.8945 447.296 56.2025C450.886 54.7978 453.037 53.5399 454.266 52.5538C454.881 52.0605 455.255 51.644 455.464 51.3217C455.681 50.9878 455.693 50.8013 455.684 50.7466C455.679 50.7167 455.678 50.6863 455.68 50.656L456.829 33.4169H454.894C454.678 33.4169 454.502 33.2412 454.502 33.0245C454.502 32.8078 454.678 32.6321 454.894 32.6321H457.22C458.089 32.5037 459.36 32.1102 460.369 31.3564C461.374 30.6052 462.1 29.5169 461.959 27.9589C461.775 25.9375 460.783 24.8964 459.658 24.4639C458.5 24.0183 457.154 24.1997 456.273 24.7284C456.147 24.8041 455.989 24.8028 455.864 24.725C455.739 24.6472 455.668 24.506 455.68 24.3593C455.872 22.0549 455.581 18.5708 453.961 15.5993C452.355 12.6537 449.432 10.1852 444.276 9.87273C441.159 9.68382 438.895 9.93394 437.175 10.7487C435.473 11.5551 434.254 12.939 433.279 15.1339C430.938 20.4011 429.438 25.6817 428.836 30.2603C428.231 34.8548 428.537 38.6834 429.74 41.0892C430.649 42.9073 432.016 44.1772 433.51 45.0496C435.983 46.4928 438.788 46.8371 440.356 46.7587C440.573 46.7479 440.757 46.9145 440.768 47.131C440.778 47.3474 440.612 47.5317 440.395 47.5425C438.834 47.6206 436.178 47.3144 433.705 46.05Z" fill="#212730"/>
<path d="M137.842 456.022H505.512" stroke="#212730" stroke-linecap="round" stroke-linejoin="round"/>
<path d="M141.766 142.911V456.022H384.263V70.694H207.442L141.766 142.911Z" fill="white" stroke="#212730"/>
<path d="M390.149 179.386C386.618 178.601 385.441 169.969 385.441 169.969C380.209 167.091 369.902 160.865 370.53 158.982C371.158 157.098 383.086 162.121 388.972 164.868C381.386 160.944 366.449 152.625 367.391 150.742C368.285 148.953 381.523 154.81 389.013 158.429C381.171 154.58 367.671 147.341 368.568 145.248C369.509 143.051 382.563 148.78 388.972 151.919C383.217 149.041 372.021 142.737 373.276 140.54C374.532 138.342 386.618 144.594 392.504 147.995C393.158 149.957 394.387 154.116 394.073 158.197C406.63 158.731 435.667 157.412 445.476 145.248C448.826 141.094 450.054 126.675 450.97 120.135L484.323 122.49C484.907 173.923 435.095 189.374 390.149 179.386Z" fill="white"/>
<path fill-rule="evenodd" clip-rule="evenodd" d="M450.632 119.718L484.711 122.124L484.715 122.485C485.009 148.357 472.614 165.213 454.486 174.321C436.385 183.416 412.598 184.777 390.064 179.769C389.035 179.541 388.226 178.754 387.596 177.8C386.962 176.839 386.47 175.649 386.097 174.505C385.723 173.358 385.462 172.238 385.295 171.407C385.211 170.991 385.151 170.647 385.111 170.405C385.099 170.334 385.089 170.271 385.081 170.219C382.462 168.773 378.665 166.542 375.567 164.427C373.985 163.348 372.573 162.29 371.592 161.376C371.102 160.92 370.704 160.486 370.447 160.091C370.203 159.717 370.018 159.275 370.157 158.858C370.316 158.384 370.798 158.231 371.224 158.191C371.678 158.148 372.262 158.209 372.922 158.335C374.252 158.59 376.009 159.136 377.912 159.819C378.871 160.164 379.873 160.545 380.88 160.945C378.802 159.777 376.697 158.553 374.778 157.374C372.492 155.969 370.46 154.62 369.054 153.498C368.354 152.94 367.791 152.424 367.43 151.974C367.251 151.75 367.106 151.523 367.025 151.301C366.944 151.076 366.916 150.813 367.04 150.566C367.153 150.34 367.352 150.203 367.563 150.125C367.77 150.049 368.011 150.02 368.266 150.018C368.776 150.013 369.432 150.118 370.184 150.298C371.695 150.658 373.687 151.343 375.87 152.192C376.484 152.43 377.113 152.682 377.753 152.943C376.912 152.464 376.093 151.986 375.311 151.516C373.185 150.237 371.317 149.004 370.032 147.953C369.393 147.429 368.879 146.935 368.551 146.49C368.245 146.074 368.004 145.567 368.207 145.094C368.412 144.615 368.914 144.436 369.411 144.385C369.928 144.332 370.584 144.396 371.325 144.537C372.814 144.82 374.759 145.437 376.856 146.214C377.955 146.622 379.1 147.074 380.25 147.549C379.572 147.135 378.911 146.717 378.28 146.302C376.593 145.193 375.106 144.092 374.115 143.12C373.622 142.636 373.23 142.163 373.004 141.719C372.78 141.277 372.684 140.785 372.936 140.345C373.19 139.9 373.683 139.734 374.194 139.698C374.714 139.661 375.357 139.749 376.072 139.917C377.509 140.256 379.348 140.949 381.311 141.809C385.243 143.53 389.75 145.951 392.7 147.655L392.829 147.73L392.876 147.871C393.511 149.777 394.704 153.791 394.49 157.821C400.785 158.062 410.928 157.838 420.736 156.098C425.746 155.21 430.656 153.928 434.918 152.117C439.183 150.305 442.773 147.975 445.171 145.002C445.957 144.026 446.645 142.409 447.243 140.381C447.837 138.364 448.33 135.984 448.749 133.521C449.314 130.199 449.739 126.755 450.097 123.854C450.272 122.442 450.43 121.159 450.581 120.081L450.632 119.718ZM394.437 158.605C394.343 160.016 394.3 161.744 394.256 163.513C394.22 164.924 394.184 166.361 394.122 167.682C394.048 169.227 393.937 170.616 393.74 171.574C393.643 172.045 393.517 172.461 393.333 172.742C393.24 172.884 393.107 173.029 392.919 173.103C392.715 173.184 392.507 173.156 392.328 173.067L392.678 172.367C392.669 172.366 392.652 172.365 392.632 172.373C392.625 172.375 392.623 172.377 392.623 172.377C392.624 172.376 392.644 172.362 392.677 172.311C392.774 172.163 392.878 171.872 392.971 171.417C393.155 170.524 393.264 169.19 393.338 167.645C393.398 166.367 393.434 164.945 393.47 163.536C393.519 161.58 393.568 159.649 393.682 158.167C393.982 154.263 392.838 150.265 392.178 148.26C389.241 146.569 384.835 144.208 380.996 142.527C379.045 141.673 377.259 141.003 375.893 140.681C375.207 140.519 374.653 140.452 374.249 140.481C373.835 140.51 373.677 140.63 373.617 140.734C373.555 140.843 373.534 141.029 373.704 141.364C373.873 141.696 374.195 142.099 374.665 142.56C375.6 143.478 377.036 144.545 378.711 145.646C382.055 147.845 386.278 150.133 389.148 151.568L388.8 152.271C385.601 150.705 380.749 148.494 376.583 146.95C374.497 146.177 372.602 145.578 371.178 145.308C370.463 145.171 369.895 145.124 369.492 145.166C369.071 145.209 368.958 145.333 368.928 145.403C368.907 145.452 368.892 145.63 369.183 146.025C369.453 146.391 369.907 146.836 370.53 147.345C371.769 148.36 373.598 149.57 375.715 150.843C379.945 153.388 385.269 156.154 389.185 158.076C389.581 158.267 389.961 158.452 390.322 158.63L389.978 159.335C389.615 159.16 389.235 158.975 388.841 158.782C385.1 156.974 379.93 154.611 375.586 152.923C373.412 152.078 371.459 151.409 370.002 151.061C369.27 150.886 368.687 150.799 368.273 150.802C368.065 150.804 367.923 150.829 367.834 150.862C367.792 150.877 367.768 150.893 367.756 150.902M367.742 150.917C367.74 150.925 367.736 150.958 367.764 151.035C367.803 151.142 367.889 151.292 368.043 151.483C368.348 151.864 368.857 152.337 369.543 152.885C370.911 153.976 372.91 155.305 375.189 156.705C379.743 159.504 385.364 162.56 389.153 164.519L388.806 165.223C385.869 163.853 381.427 161.916 377.647 160.558C375.753 159.878 374.042 159.349 372.775 159.106C372.137 158.984 371.64 158.94 371.298 158.972C371.127 158.988 371.021 159.021 370.961 159.053C370.91 159.08 370.904 159.099 370.902 159.105C370.884 159.159 370.884 159.324 371.104 159.663C371.311 159.98 371.656 160.363 372.126 160.801C373.064 161.675 374.438 162.706 376.009 163.779C379.147 165.921 383.02 168.19 385.63 169.625L385.803 169.72L385.829 169.916L385.83 169.921L385.832 169.938C385.835 169.954 385.838 169.977 385.843 170.008C385.852 170.07 385.866 170.161 385.885 170.278C385.924 170.511 385.983 170.847 386.064 171.252C386.228 172.065 386.482 173.153 386.844 174.262C387.206 175.374 387.671 176.49 388.251 177.368C388.835 178.253 389.497 178.839 390.234 179.003C412.646 183.984 436.238 182.612 454.134 173.62C471.918 164.684 484.105 148.212 483.934 122.855L451.308 120.552C451.175 121.532 451.034 122.673 450.88 123.919C450.52 126.83 450.09 130.315 449.523 133.652C449.101 136.13 448.602 138.543 447.995 140.602C447.392 142.651 446.67 144.393 445.782 145.495C443.274 148.604 439.556 151 435.225 152.84C430.891 154.681 425.919 155.976 420.873 156.871C410.984 158.625 400.769 158.849 394.437 158.605" fill="#212730"/>
<path fill-rule="evenodd" clip-rule="evenodd" d="M232.585 166.029C232.585 165.476 233.033 165.029 233.585 165.029H305.785C306.338 165.029 306.785 165.476 306.785 166.029C306.785 166.581 306.338 167.029 305.785 167.029H233.585C233.033 167.029 232.585 166.581 232.585 166.029ZM182.886 190.766C182.886 190.213 183.334 189.766 183.886 189.766L332.099 189.766C332.652 189.766 333.099 190.213 333.099 190.766C333.099 191.318 332.652 191.766 332.099 191.766L183.886 191.766C183.334 191.766 182.886 191.318 182.886 190.766ZM183.886 214.879C183.334 214.879 182.886 215.326 182.886 215.879C182.886 216.431 183.334 216.879 183.886 216.879L354.874 216.879C355.427 216.879 355.874 216.431 355.874 215.879C355.874 215.326 355.427 214.879 354.874 214.879L183.886 214.879ZM182.886 240.992C182.886 240.439 183.334 239.992 183.886 239.992L354.874 239.992C355.427 239.992 355.874 240.439 355.874 240.992C355.874 241.544 355.427 241.992 354.874 241.992L183.886 241.992C183.334 241.992 182.886 241.544 182.886 240.992ZM184.144 265.105C183.592 265.105 183.144 265.552 183.144 266.105C183.144 266.657 183.592 267.105 184.144 267.105H312.848C313.401 267.105 313.848 266.657 313.848 266.105C313.848 265.552 313.401 265.105 312.848 265.105H184.144ZM183.144 291.218C183.144 290.665 183.592 290.218 184.144 290.218H330.114C330.666 290.218 331.114 290.665 331.114 291.218C331.114 291.77 330.666 292.218 330.114 292.218H184.144C183.592 292.218 183.144 291.77 183.144 291.218ZM184.144 315.331C183.592 315.331 183.144 315.778 183.144 316.331C183.144 316.883 183.592 317.331 184.144 317.331H355.227C355.779 317.331 356.227 316.883 356.227 316.331C356.227 315.778 355.779 315.331 355.227 315.331H184.144ZM183.144 341.444C183.144 340.891 183.592 340.444 184.144 340.444H355.227C355.779 340.444 356.227 340.891 356.227 341.444C356.227 341.996 355.779 342.444 355.227 342.444H184.144C183.592 342.444 183.144 341.996 183.144 341.444ZM184.144 365.557C183.592 365.557 183.144 366.004 183.144 366.557C183.144 367.109 183.592 367.557 184.144 367.557H355.227C355.779 367.557 356.227 367.109 356.227 366.557C356.227 366.004 355.779 365.557 355.227 365.557H184.144Z" fill="#212730"/>
<path d="M189.605 143.156L141.557 142.822V150.143L191.676 154.664L207.403 70.8864L205.946 72.8811L189.605 143.156Z" fill="#212730"/>
<path d="M477.652 456.022H413.3L413.502 449.351L414.085 430.124H469.412C469.509 431.672 469.763 434.881 470.143 437.972C470.389 439.973 470.664 441.912 471.374 443.808C472.008 445.502 472.926 447.455 473.901 449.351C475.24 451.955 476.686 454.451 477.652 456.022Z" fill="white"/>
<path fill-rule="evenodd" clip-rule="evenodd" d="M413.693 430.112C413.699 429.9 413.873 429.732 414.085 429.732H469.412C469.619 429.732 469.791 429.893 469.804 430.099C469.9 431.642 470.154 434.843 470.533 437.924C470.779 439.926 471.05 441.822 471.742 443.671C472.368 445.344 473.278 447.281 474.25 449.172C475.583 451.765 477.025 454.253 477.987 455.816C478.061 455.937 478.064 456.089 477.995 456.213C477.926 456.337 477.795 456.414 477.652 456.414H413.3C413.194 456.414 413.093 456.371 413.019 456.295C412.945 456.219 412.905 456.116 412.908 456.01L413.693 430.112ZM414.466 430.516L413.907 448.959H473.261C472.439 447.331 471.673 445.68 471.103 444.201H463.919C463.702 444.201 463.526 444.025 463.526 443.809C463.526 443.592 463.702 443.416 463.919 443.416H470.819C470.266 441.754 470.011 440.067 469.797 438.364H459.995C459.778 438.364 459.602 438.188 459.602 437.972C459.602 437.755 459.778 437.579 459.995 437.579H469.701C469.376 434.847 469.15 432.089 469.045 430.516H414.466ZM473.662 449.743H413.883L413.705 455.629H476.954C476.034 454.103 474.815 451.971 473.662 449.743Z" fill="#212730"/>
<path opacity="0.5" d="M184.828 192.015L167.551 441.012H361.354L195.925 192.015H184.828Z" fill="#FD961E"/>
<path d="M135.17 150.368C135.17 155.688 135.053 164.238 133.461 167.882C131.664 171.994 126.941 172.153 124.064 172.153C118.638 172.153 115.521 161.692 115.521 150.368C115.521 139.044 119.919 129.864 125.345 129.864C128.255 129.864 132.517 128.66 134.316 132.855C135.871 136.482 135.17 145.117 135.17 150.368Z" fill="white"/>
<path d="M1 606.581H201.931" stroke="#212730" stroke-linecap="round" stroke-linejoin="round"/>
<path d="M167.201 227.874L151.087 206.31C147.633 198.421 132.152 187.363 107.721 185.456C83.3006 183.549 66.5627 198.384 59.6294 210.517C59.1554 211.347 57.958 212.588 54.9944 217.329C52.05 222.039 47.9245 233.562 46.4631 238.894L76.0847 246.24L80.3504 255.127H126.205L133.907 240.079L145.4 251.335L167.201 227.874Z" fill="white"/>
<path d="M179.486 196.253C179.486 194.378 183.925 194.77 185.571 194.77H194.241V208.994C190.678 209.35 182.742 209.349 182.742 207.675C182.742 206.241 184.592 205.988 185.186 205.869V203.734C183.524 203.972 179.486 203.948 179.486 201.953C179.486 199.958 183.909 199.696 185.571 199.815V198.127C183.909 198.246 179.486 198.127 179.486 196.253Z" fill="white"/>
<path fill-rule="evenodd" clip-rule="evenodd" d="M184.837 194.4C185.121 194.407 185.371 194.414 185.571 194.414H194.597V209.316L194.276 209.348C192.476 209.528 189.582 209.617 187.131 209.451C185.909 209.368 184.776 209.22 183.939 208.98C183.523 208.86 183.155 208.711 182.883 208.517C182.611 208.323 182.386 208.046 182.386 207.675C182.386 206.762 182.99 206.244 183.587 205.957C184.021 205.749 184.499 205.639 184.83 205.574V204.135C183.959 204.22 182.73 204.232 181.647 204.031C181.017 203.914 180.404 203.719 179.94 203.399C179.464 203.071 179.129 202.596 179.129 201.953C179.129 201.299 179.5 200.812 180.001 200.467C180.495 200.127 181.15 199.898 181.825 199.744C182.998 199.476 184.323 199.413 185.214 199.441V198.503C184.328 198.539 183.008 198.509 181.838 198.287C181.165 198.159 180.51 197.962 180.015 197.656C179.514 197.346 179.129 196.889 179.129 196.253C179.129 195.605 179.528 195.177 180.042 194.913C180.544 194.656 181.203 194.524 181.874 194.454C182.874 194.35 184.002 194.379 184.837 194.4ZM180.368 195.547C179.998 195.737 179.842 195.963 179.842 196.253C179.842 196.553 180.01 196.814 180.39 197.05C180.776 197.289 181.331 197.466 181.971 197.587C183.245 197.829 184.734 197.83 185.545 197.772L185.927 197.744V200.198L185.545 200.171C184.741 200.113 183.256 200.148 181.984 200.439C181.346 200.584 180.792 200.788 180.405 201.054C180.024 201.316 179.842 201.609 179.842 201.953C179.842 202.307 180.012 202.583 180.345 202.813C180.69 203.051 181.19 203.222 181.777 203.33C182.947 203.547 184.332 203.496 185.135 203.381L185.542 203.323V206.161L185.256 206.218C185.214 206.226 185.169 206.235 185.121 206.244C184.794 206.306 184.318 206.397 183.895 206.6C183.419 206.829 183.098 207.154 183.098 207.675C183.098 207.723 183.122 207.812 183.297 207.937C183.473 208.062 183.752 208.185 184.136 208.295C184.899 208.514 185.973 208.658 187.179 208.74C189.446 208.894 192.109 208.825 193.884 208.669V195.126H185.571C185.343 195.126 185.071 195.119 184.772 195.112C183.943 195.091 182.896 195.064 181.948 195.163C181.303 195.23 180.75 195.351 180.368 195.547Z" fill="#212730"/>
<rect x="182.208" y="166.029" width="19.4294" height="37.9821" fill="white"/>
<path fill-rule="evenodd" clip-rule="evenodd" d="M185.009 163.729C182.815 163.729 181.031 165.496 181.009 167.69L180.632 206.171H203.101V167.729C203.101 165.52 201.31 163.729 199.101 163.729H185.009ZM183.104 166.131L182.457 203.769H200.679L201.276 166.131H183.104Z" fill="#212730"/>
<rect x="186.402" y="176.293" width="11.0746" height="13.8611" transform="rotate(0.598111 186.402 176.293)" stroke="#212730"/>
<path d="M16.5076 606.581L25.2554 567.614H41.9558L39.5701 579.94L52.6918 600.617V606.581H16.5076Z" fill="white"/>
<path d="M113.927 606.581V567.614H130.229V583.121L169.992 600.617V606.581H113.927Z" fill="white"/>
<path fill-rule="evenodd" clip-rule="evenodd" d="M113.578 567.119H130.678V582.919L170.223 600.375V606.581H113.578V567.119ZM114.29 567.832V586.001H123.918C123.95 585.322 124.073 584.392 124.352 583.451C124.681 582.336 125.243 581.161 126.175 580.383C127.667 579.141 129.116 578.827 129.966 578.841V567.832H114.29ZM129.966 579.554C129.313 579.54 128.019 579.774 126.631 580.931C125.854 581.579 125.346 582.6 125.035 583.653C124.725 584.7 124.622 585.735 124.622 586.357V586.713H114.29V600.251H168.178L142.198 588.783L139.161 592.979C139.046 593.138 138.823 593.174 138.663 593.058C138.504 592.943 138.468 592.72 138.584 592.561L141.532 588.489L136.499 586.267L133.461 590.484C133.346 590.644 133.124 590.68 132.964 590.565C132.804 590.45 132.768 590.227 132.883 590.068L135.833 585.973L129.966 583.383V579.554ZM169.511 600.964H114.29V605.869H169.511V600.964Z" fill="#212730"/>
<path fill-rule="evenodd" clip-rule="evenodd" d="M24.9387 567.119H42.4065L39.8534 579.52L53.0135 600.505V606.664H16.23L17.6056 600.531L17.6059 600.53L24.9387 567.119ZM18.2387 600.964L17.12 605.951H52.301V600.964H18.2387ZM52.0133 600.251H18.3965L21.3677 586.713H37.969L39.6108 580.474L43.054 585.965L41.3459 587.903C41.2158 588.051 41.23 588.276 41.3776 588.406C41.5252 588.536 41.7504 588.522 41.8805 588.374L43.4489 586.594L45.7417 590.251L44.1854 592.191C44.0623 592.344 44.0869 592.568 44.2403 592.691C44.3938 592.815 44.618 592.79 44.7412 592.637L46.1425 590.89L52.0133 600.251ZM39.1286 579.507L41.5324 567.832H25.5118L21.5241 586.001H37.4197L39.1286 579.507Z" fill="#212730"/>
<path d="M41.9959 284.095C45.1823 265.819 49.2138 252.95 53.2147 240.703L71.7111 245.166C67.9359 258.112 60.252 284.351 59.717 285.742C59.0484 287.481 55.9605 305.103 53.8424 317.549C51.982 328.48 51.3065 336.8 49.5977 345.611C52.8519 358.057 56.0437 359.947 55.0356 361.207C52.2698 364.664 50.0286 359.877 47.6362 357.38C50.3407 361.719 55.17 370.682 52.8519 371.824C50.5972 372.934 46.5852 364.124 44.713 359.211C46.5853 364.291 48.7826 374.516 47.1904 375.078C45.0426 375.836 42.0639 365.865 41.0386 360.501C41.6033 365.449 42.3938 375.461 41.0386 375.925C39.3446 376.504 37.6985 368.347 36.9666 364.248C36.2347 360.15 36.4976 344.862 36.9666 332.456C37.645 314.51 38.9113 301.787 41.9959 284.095Z" fill="white"/>
<path fill-rule="evenodd" clip-rule="evenodd" d="M52.8761 240.593C52.9338 240.416 53.1177 240.313 53.2983 240.357L71.7947 244.82C71.8894 244.843 71.9706 244.903 72.0194 244.988C72.0682 245.072 72.0804 245.172 72.0531 245.266C70.1655 251.739 67.3007 261.536 64.8408 269.888C63.6109 274.064 62.4821 277.88 61.6273 280.738C60.7761 283.585 60.1898 285.506 60.0496 285.87C59.977 286.059 59.8608 286.498 59.707 287.176C59.5554 287.845 59.3724 288.721 59.1643 289.765C58.7483 291.853 58.2339 294.605 57.6739 297.694C56.5539 303.871 55.2526 311.386 54.1937 317.609C53.3341 322.659 52.7278 327.152 52.1546 331.399C52.1083 331.742 52.0623 332.083 52.0163 332.423C51.405 336.943 50.8113 341.211 49.9629 345.599C51.5762 351.748 53.1696 355.288 54.2346 357.446C54.3917 357.764 54.5396 358.057 54.6756 358.326C54.996 358.96 55.2501 359.462 55.402 359.862C55.5123 360.153 55.5849 360.428 55.5811 360.691C55.5771 360.968 55.4883 361.211 55.3139 361.429C54.5856 362.34 53.8346 362.777 53.0482 362.775C52.28 362.773 51.5828 362.349 50.9586 361.792C50.6762 361.539 50.3979 361.25 50.1236 360.939C50.9615 362.472 51.794 364.12 52.455 365.66C53.0861 367.131 53.5711 368.527 53.7472 369.64C53.835 370.195 53.8507 370.707 53.7513 371.134C53.6497 371.57 53.42 371.941 53.0094 372.143C52.6098 372.34 52.1872 372.303 51.7887 372.128C51.3993 371.957 51.0127 371.649 50.6363 371.26C49.882 370.48 49.0929 369.298 48.3292 367.952C47.8045 367.027 47.2861 366.014 46.7934 364.983C47.1053 366.262 47.3835 367.558 47.6016 368.776C47.8951 370.414 48.083 371.926 48.0946 373.072C48.1004 373.643 48.063 374.144 47.9629 374.532C47.8688 374.897 47.6875 375.28 47.3091 375.414C46.8908 375.561 46.4863 375.428 46.1418 375.177C45.8021 374.93 45.4776 374.54 45.1693 374.069C44.5499 373.124 43.9332 371.751 43.3597 370.209C42.821 368.761 42.3137 367.144 41.8736 365.558C41.9831 367.005 42.0716 368.497 42.1147 369.883C42.1643 371.478 42.1543 372.946 42.0443 374.05C41.9895 374.6 41.9083 375.079 41.7896 375.442C41.7302 375.624 41.6567 375.793 41.5621 375.931C41.4679 376.068 41.3362 376.2 41.154 376.262C40.7843 376.388 40.445 376.255 40.1779 376.03C39.9188 375.812 39.6872 375.479 39.4773 375.091C39.0544 374.308 38.6586 373.185 38.2996 371.939C37.5794 369.441 36.9822 366.362 36.616 364.311C36.243 362.222 36.1273 357.339 36.1601 351.465C36.193 345.575 36.3761 338.648 36.6107 332.442C37.2896 314.482 38.5575 301.742 41.645 284.034C44.8357 265.733 48.8734 252.845 52.8761 240.593ZM45.0467 359.086C44.9951 358.946 44.9438 358.81 44.8927 358.678C44.822 358.495 44.617 358.404 44.4338 358.474C44.2506 358.543 44.1581 358.748 44.2266 358.931C44.2758 359.063 44.3268 359.198 44.3795 359.336C45.3071 361.854 46.3192 365.658 46.9003 368.902C47.1912 370.525 47.3711 371.992 47.3822 373.08C47.3877 373.626 47.3502 374.055 47.273 374.354C47.1899 374.676 47.0915 374.735 47.0719 374.742C46.9533 374.784 46.7949 374.771 46.5614 374.601C46.323 374.427 46.0544 374.12 45.7654 373.679C45.1902 372.801 44.5954 371.488 44.0276 369.961C42.8942 366.914 41.8981 363.099 41.3886 360.434C41.3526 360.246 41.1743 360.12 40.985 360.148C40.7956 360.177 40.663 360.351 40.6847 360.541C40.9664 363.01 41.3041 366.739 41.4025 369.905C41.4518 371.491 41.4406 372.922 41.3353 373.98C41.2824 374.511 41.2074 374.93 41.1122 375.221C41.0646 375.367 41.0167 375.466 40.9743 375.528C40.9441 375.572 40.9249 375.586 40.9205 375.589C40.8667 375.606 40.7842 375.609 40.6368 375.485C40.4788 375.352 40.2982 375.111 40.1041 374.752C39.719 374.039 39.34 372.976 38.9842 371.742C38.2749 369.282 37.683 366.233 37.3174 364.186C36.9584 362.175 36.8397 357.366 36.8726 351.469C36.9054 345.589 37.0883 338.67 37.3227 332.469C38.0005 314.538 39.2653 301.831 42.3469 284.156C45.5019 266.061 49.4858 253.275 53.4512 241.127L71.2646 245.425C69.377 251.897 66.5719 261.488 64.1573 269.687C62.9275 273.862 61.799 277.677 60.9446 280.534C60.0867 283.403 59.5119 285.283 59.3846 285.614C59.2901 285.86 59.1634 286.352 59.0121 287.019C58.8586 287.696 58.6741 288.579 58.4656 289.626C58.0483 291.72 57.5331 294.477 56.9728 297.567C55.8521 303.747 54.5504 311.266 53.4912 317.489C52.6295 322.553 52.0217 327.056 51.4486 331.302C51.4023 331.646 51.3562 331.987 51.3102 332.327C50.7727 336.302 50.2505 340.068 49.5584 343.888C49.3016 342.706 49.0474 341.367 48.9714 340.627C48.9514 340.431 48.7764 340.289 48.5807 340.309C48.385 340.329 48.2426 340.504 48.2626 340.699C48.3842 341.885 48.9279 344.458 49.2531 345.701C50.8871 351.95 52.5077 355.557 53.5956 357.761C53.7672 358.109 53.923 358.417 54.0623 358.692C54.3705 359.302 54.5979 359.752 54.7358 360.115C54.8338 360.373 54.8706 360.55 54.8687 360.68C54.867 360.796 54.835 360.887 54.7575 360.984C54.1029 361.803 53.5366 362.064 53.0501 362.062C52.5454 362.061 52.0143 361.78 51.4333 361.26C50.857 360.745 50.2839 360.045 49.6923 359.296C49.6174 359.202 49.5422 359.106 49.4667 359.01C48.954 358.359 48.4279 357.691 47.8935 357.134C47.7672 357.002 47.5618 356.987 47.4177 357.099C47.2736 357.211 47.2374 357.414 47.334 357.569C48.681 359.73 50.5544 363.038 51.8002 365.941C52.4247 367.397 52.8814 368.727 53.0434 369.751C53.1246 370.265 53.127 370.673 53.0574 370.972C52.9899 371.262 52.8635 371.421 52.6946 371.504C52.5306 371.585 52.3346 371.589 52.0747 371.476C51.8059 371.358 51.4945 371.122 51.1484 370.764C50.4578 370.051 49.7041 368.932 48.949 367.6C47.443 364.945 45.9796 361.534 45.0467 359.086Z" fill="#212730"/>
<path d="M52.3011 320.587C56.5763 289.236 72.8455 263.823 80.4457 255.035H126.047C133.172 279.974 138.872 329.066 140.297 343.032C142.079 360.488 142.079 431.74 141.722 445.991C141.437 457.391 134.716 531.731 131.391 567.475H113.578C112.865 551.325 111.155 513.324 110.015 490.523C108.875 467.723 99.3274 412.384 94.6961 387.564C89.7084 408.821 78.8069 454.256 75.1018 465.941C71.3967 477.627 51.7074 538.5 42.3259 567.475H24.8691C30.9256 527.218 43.7509 440.362 46.601 414.996C50.1636 383.289 46.9572 359.776 52.3011 320.587Z" fill="#5583E2"/>
<path fill-rule="evenodd" clip-rule="evenodd" d="M80.2831 254.679H126.316L126.39 254.938C133.525 279.911 139.228 329.036 140.652 342.995C142.436 360.478 142.435 431.752 142.079 446C141.793 457.416 135.07 531.774 131.746 567.508L131.716 567.832H113.237L113.222 567.491C112.51 551.341 110.8 513.34 109.66 490.541C108.546 468.265 99.3907 414.851 94.6558 389.295C89.5132 411.16 79.0587 454.641 75.4417 466.049C71.7361 477.736 52.0463 538.61 42.6651 567.585L42.5853 567.832H24.4556L24.5171 567.422C30.5741 527.161 43.3981 440.314 46.2472 414.956C47.8306 400.865 48.0753 388.395 48.3298 375.427C48.3613 373.824 48.3929 372.212 48.4272 370.59C48.739 355.845 49.2737 340.154 51.9484 320.539C56.2348 289.106 72.5413 263.631 80.1765 254.802L80.2831 254.679ZM80.6092 255.392C72.9994 264.252 56.8985 289.512 52.6544 320.635C49.9852 340.209 49.4512 355.869 49.1396 370.605C49.1053 372.227 49.0736 373.838 49.0422 375.441C48.7878 388.407 48.5425 400.91 46.9553 415.036C44.1139 440.324 31.3641 526.689 25.2833 567.119H42.067C51.4802 538.045 71.0683 477.484 74.7625 465.834C78.4623 454.165 89.3599 408.748 94.3495 387.483L95.0466 387.499C99.6765 412.311 109.23 467.676 110.371 490.505C111.503 513.148 113.198 550.781 113.919 567.119H131.066C134.403 531.241 141.083 457.332 141.367 445.982C141.723 431.729 141.722 360.499 139.943 343.068C138.522 329.144 132.859 280.374 125.778 255.392H80.6092Z" fill="#212730"/>
<path d="M81.8711 311.681C82.1086 316.668 83.2961 330.919 86.1462 348.019C88.9963 365.12 93.0339 381.508 94.6964 387.92" stroke="#212730" stroke-linecap="round"/>
<path fill-rule="evenodd" clip-rule="evenodd" d="M150.929 205.194L167.477 227.627L145.294 251.993L133.453 239.782L150.929 205.194ZM151.042 206.549L134.317 239.65L145.277 250.953L166.557 227.58L151.042 206.549Z" fill="#212730"/>
<path fill-rule="evenodd" clip-rule="evenodd" d="M59.8801 209.501L76.7979 246.647L46.2124 239.277L46.2471 238.964C46.3711 237.848 47.3353 233.751 50.1859 226.055C53.0537 218.312 57.5917 212.075 59.5165 209.91L59.8801 209.501ZM59.6891 210.801C57.6478 213.229 53.5187 219.108 50.8541 226.302C48.2366 233.369 47.2339 237.342 46.9999 238.733L75.5435 245.611L59.6891 210.801Z" fill="#212730"/>
<path fill-rule="evenodd" clip-rule="evenodd" d="M60.1811 210.16L80.674 254.679H125.828L150.592 205.859C149.328 202.989 145.839 198.843 139.271 195.001C132.597 191.097 122.759 187.517 108.906 185.919C81.7264 182.783 65.1178 201.15 60.1811 210.16ZM59.4692 209.978C64.3779 200.879 81.2546 182.011 108.987 185.211C122.922 186.819 132.857 190.424 139.631 194.386C146.397 198.344 150.027 202.671 151.314 205.734L151.378 205.886L126.266 255.392H80.2176L59.3848 210.134L59.4692 209.978Z" fill="#212730"/>
<path d="M97.1528 181.124L98.8614 173.008L120.219 172.58V182.405L122.782 188.385L93.3083 187.531L97.1528 181.124Z" fill="white"/>
<path fill-rule="evenodd" clip-rule="evenodd" d="M134.982 153.279C135.121 146.799 134.954 139.501 134.598 134.646L135.309 134.594C135.666 139.476 135.833 146.796 135.694 153.294C135.624 156.544 135.478 159.594 135.239 162.034C135.12 163.254 134.977 164.327 134.808 165.199C134.641 166.061 134.443 166.76 134.198 167.21C132.001 171.238 129.037 172.557 126.282 172.65C123.56 172.742 121.087 171.639 119.814 170.911L120.167 170.293C121.388 170.99 123.725 172.024 126.258 171.938C128.757 171.853 131.494 170.678 133.572 166.869C133.761 166.522 133.944 165.915 134.109 165.063C134.272 164.222 134.412 163.173 134.53 161.965C134.766 159.55 134.912 156.519 134.982 153.279Z" fill="#212730"/>
<path fill-rule="evenodd" clip-rule="evenodd" d="M98.2591 172.739H120.719L120.703 173.111C120.644 174.533 120.573 176.703 120.552 178.586C120.542 179.528 120.544 180.395 120.566 181.059C120.578 181.392 120.594 181.669 120.615 181.877C120.626 181.982 120.637 182.064 120.649 182.124C120.66 182.181 120.668 182.202 120.667 182.202C120.667 182.202 120.667 182.201 120.666 182.199C120.814 182.495 121.443 183.934 122.028 185.28C122.322 185.958 122.607 186.617 122.819 187.107C122.924 187.352 123.012 187.555 123.073 187.696L123.168 187.917L123.426 188.517L122.782 188.41C122.331 188.335 121.544 188.167 120.531 187.951C120.322 187.906 120.104 187.86 119.877 187.811C118.542 187.528 116.893 187.183 115.099 186.85C111.504 186.183 107.345 185.565 103.959 185.565C101.466 185.565 96.2741 185.803 94.0574 186.27L93.7619 185.644C93.7613 185.643 93.7612 185.643 93.7612 185.643L93.7619 185.643L93.7704 185.635C93.7787 185.628 93.7922 185.617 93.8107 185.6C93.8475 185.567 93.9039 185.515 93.977 185.442C94.1233 185.296 94.3366 185.066 94.595 184.738C95.1116 184.084 95.8091 183.04 96.5098 181.499C97.906 178.427 98.2591 174.612 98.2591 173.096V172.739ZM94.9834 185.391C97.5705 185.03 101.8 184.852 103.959 184.852C107.414 184.852 111.627 185.481 115.229 186.15C117.032 186.485 118.688 186.83 120.025 187.115C120.255 187.163 120.476 187.211 120.686 187.255C121.306 187.388 121.833 187.5 122.248 187.584C122.222 187.523 122.194 187.458 122.164 187.389C121.953 186.9 121.668 186.241 121.374 185.564C120.783 184.203 120.165 182.792 120.029 182.518C119.988 182.437 119.965 182.341 119.949 182.259C119.932 182.17 119.918 182.066 119.906 181.95C119.882 181.718 119.866 181.423 119.854 181.083C119.831 180.403 119.829 179.524 119.84 178.578C119.859 176.843 119.92 174.868 119.976 173.452H98.9663C98.9171 175.204 98.5124 178.815 97.1584 181.793C96.434 183.387 95.7064 184.48 95.1543 185.18C95.0952 185.255 95.0382 185.325 94.9834 185.391Z" fill="#212730"/>
<path fill-rule="evenodd" clip-rule="evenodd" d="M96.8604 181.645L96.834 181.29C96.8075 180.934 96.8076 180.934 96.8076 180.934L96.88 180.929C96.9273 180.926 96.9972 180.921 97.0875 180.914C97.2681 180.902 97.5305 180.884 97.8578 180.863C98.5125 180.82 99.4274 180.765 100.469 180.714C102.549 180.61 105.143 180.521 107.175 180.577C109.782 180.65 113.092 181.008 115.742 181.347C117.069 181.516 118.234 181.681 119.067 181.804C119.484 181.865 119.818 181.916 120.047 181.951C120.162 181.969 120.251 181.983 120.311 181.992L120.38 182.003L120.403 182.007C120.403 182.007 120.403 182.007 120.347 182.358L120.291 182.71L120.268 182.707L120.201 182.696C120.141 182.687 120.053 182.673 119.939 182.655C119.71 182.62 119.378 182.57 118.963 182.509C118.134 182.386 116.974 182.222 115.652 182.053C113.006 181.715 109.725 181.361 107.156 181.29C105.152 181.234 102.581 181.322 100.504 181.425C99.467 181.477 98.5557 181.532 97.9037 181.574C97.5778 181.595 97.3167 181.613 97.1372 181.625C97.0475 181.631 96.9782 181.636 96.9313 181.64L96.8604 181.645Z" fill="#212730"/>
<path d="M118.566 111.819C106.453 108.969 90.0649 108.613 83.2959 131.77C79.1499 145.953 81.4399 160.276 89.7097 168.018C95.2852 173.238 102.795 175.946 110.372 175.946C115.716 175.946 120.931 174.968 124.623 170.246C127.783 166.204 127.473 160.627 127.473 157.42C127.473 155.639 128.542 155.639 129.254 155.283C127.829 155.045 124.628 153.426 124.978 148.87C125.335 144.239 128.541 143.526 131.035 143.526C131.288 143.492 131.122 143.078 131.035 142.814C130.68 141.745 129.903 140.996 130.68 137.113C131.392 133.551 134.836 134.263 135.667 135.688C136.736 133.551 135.952 127.993 135.667 125.713C135.311 122.863 130.679 114.669 118.566 111.819Z" fill="#212730"/>
<ellipse cx="92.2026" cy="112.175" rx="14.2504" ry="12.1128" transform="rotate(-25.5838 92.2026 112.175)" fill="#212730"/>
<path d="M166.46 228.224L171.292 233.66L193.736 208.722C192.549 203.615 189.935 193.631 192.311 192.69C194.18 191.95 196.137 197.245 197.762 201.24L202.287 198.034V187.346C205.137 189.365 211.649 196.509 208.699 207.653C205.493 219.766 184.474 251.633 171.292 252.542C165.605 252.934 156.97 245.723 153.764 242.161L166.46 228.224Z" fill="white"/>
<path fill-rule="evenodd" clip-rule="evenodd" d="M201.93 186.657L202.492 187.055C205.418 189.127 212.044 196.408 209.044 207.744C207.423 213.868 201.333 224.907 194.02 234.514C190.359 239.324 186.378 243.792 182.478 247.119C178.591 250.435 174.731 252.662 171.316 252.897C169.819 253 168.155 252.603 166.471 251.916C164.782 251.228 163.047 250.238 161.399 249.13C158.104 246.915 155.122 244.202 153.499 242.399L153.283 242.159L166.463 227.692L171.294 233.125L193.347 208.622C193.257 208.234 193.158 207.82 193.055 207.384C192.482 204.967 191.755 201.904 191.335 199.198C191.082 197.566 190.936 196.039 191.009 194.852C191.045 194.259 191.138 193.728 191.312 193.304C191.488 192.877 191.763 192.524 192.18 192.359C192.842 192.097 193.46 192.404 193.97 192.896C194.483 193.39 194.974 194.148 195.442 195.021C196.238 196.51 197.012 198.429 197.721 200.19C197.789 200.358 197.856 200.525 197.923 200.689L201.93 197.85V186.657ZM197.564 201.696C197.517 201.583 197.472 201.475 197.431 201.374C197.308 201.071 197.183 200.762 197.057 200.448C196.346 198.684 195.59 196.809 194.814 195.358C194.355 194.501 193.906 193.824 193.475 193.409C193.042 192.99 192.715 192.913 192.442 193.021C192.266 193.091 192.103 193.255 191.971 193.575C191.839 193.897 191.754 194.34 191.72 194.896C191.652 196.004 191.788 197.47 192.04 199.089C192.455 201.763 193.173 204.792 193.746 207.21C193.866 207.717 193.98 208.197 194.083 208.641L194.093 208.681V211.572C194.093 211.769 193.933 211.928 193.736 211.928C193.54 211.928 193.38 211.769 193.38 211.572V209.65L171.77 233.661L174.408 236.63C174.539 236.777 174.526 237.002 174.379 237.132C174.232 237.263 174.006 237.25 173.876 237.103L166.457 228.757L154.246 242.161C155.872 243.917 158.694 246.452 161.797 248.539C163.419 249.629 165.11 250.592 166.74 251.256C168.373 251.922 169.922 252.279 171.267 252.186C174.444 251.967 178.155 249.87 182.016 246.577C185.864 243.294 189.81 238.868 193.453 234.083C200.746 224.502 206.769 213.551 208.355 207.562C211.072 197.297 205.622 190.498 202.643 188.066V198.218L198.199 201.367L198.222 201.423C198.222 201.424 198.222 201.424 198.222 201.424C198.327 201.677 198.448 201.964 198.572 202.259C198.895 203.024 199.243 203.85 199.415 204.325C199.481 204.507 199.39 204.709 199.209 204.779C199.028 204.849 198.824 204.761 198.751 204.582L197.564 201.696C197.564 201.696 197.564 201.696 197.564 201.696Z" fill="#212730"/>
<circle cx="76.7982" cy="214.654" r="2.45077" fill="#212730"/>
<circle cx="66.6353" cy="235.217" r="2.45077" fill="#212730"/>
<path fill-rule="evenodd" clip-rule="evenodd" d="M82.2731 196.411C82.553 196.688 82.5556 197.139 82.279 197.419L76.8912 202.87C76.6146 203.15 76.1634 203.153 75.8835 202.876C75.6037 202.6 75.601 202.148 75.8776 201.869L81.2654 196.417C81.5421 196.137 81.9932 196.134 82.2731 196.411Z" fill="#212730"/>
<path fill-rule="evenodd" clip-rule="evenodd" d="M125.703 198.42C125.983 198.697 125.985 199.148 125.709 199.428L120.321 204.88C120.044 205.159 119.593 205.162 119.313 204.886C119.033 204.609 119.031 204.158 119.307 203.878L124.695 198.426C124.972 198.146 125.423 198.144 125.703 198.42Z" fill="#212730"/>
<path fill-rule="evenodd" clip-rule="evenodd" d="M133.667 219.701C133.947 219.978 133.949 220.429 133.673 220.709L128.285 226.161C128.008 226.44 127.557 226.443 127.277 226.166C126.997 225.89 126.995 225.439 127.271 225.159L132.659 219.707C132.936 219.427 133.387 219.425 133.667 219.701Z" fill="#212730"/>
<path fill-rule="evenodd" clip-rule="evenodd" d="M147.265 235.005C147.394 235.377 147.198 235.783 146.826 235.913L139.588 238.434C139.216 238.563 138.81 238.367 138.68 237.995C138.551 237.623 138.747 237.217 139.119 237.088L146.357 234.567C146.729 234.437 147.135 234.634 147.265 235.005Z" fill="#212730"/>
<path fill-rule="evenodd" clip-rule="evenodd" d="M59.8859 224.841C60.1658 225.118 60.1684 225.569 59.8918 225.849L54.504 231.3C54.2274 231.58 53.7762 231.583 53.4963 231.306C53.2164 231.03 53.2138 230.579 53.4904 230.299L58.8782 224.847C59.1548 224.567 59.606 224.564 59.8859 224.841Z" fill="#212730"/>
<path fill-rule="evenodd" clip-rule="evenodd" d="M84.9672 228.087C85.2471 228.364 85.2497 228.815 84.9731 229.095L79.5853 234.546C79.3087 234.826 78.8575 234.829 78.5776 234.552C78.2977 234.276 78.2951 233.824 78.5717 233.545L83.9595 228.093C84.2361 227.813 84.6873 227.81 84.9672 228.087Z" fill="#212730"/>
<path fill-rule="evenodd" clip-rule="evenodd" d="M97.8966 212.01C97.62 212.29 97.1688 212.293 96.8889 212.016L91.4372 206.628C91.1573 206.352 91.1547 205.9 91.4313 205.621C91.7079 205.341 92.159 205.338 92.4389 205.615L97.8906 211.002C98.1705 211.279 98.1732 211.73 97.8966 212.01Z" fill="#212730"/>
<path fill-rule="evenodd" clip-rule="evenodd" d="M119.093 246.529C118.816 246.809 118.365 246.811 118.085 246.535L112.634 241.147C112.354 240.87 112.351 240.419 112.628 240.139C112.904 239.859 113.355 239.857 113.635 240.133L119.087 245.521C119.367 245.798 119.369 246.249 119.093 246.529Z" fill="#212730"/>
<path fill-rule="evenodd" clip-rule="evenodd" d="M151.824 227.784C151.457 227.926 151.045 227.744 150.902 227.377L148.13 220.231C147.987 219.864 148.169 219.452 148.536 219.309C148.903 219.167 149.316 219.349 149.458 219.716L152.231 226.862C152.373 227.228 152.191 227.641 151.824 227.784Z" fill="#212730"/>
<circle cx="105.381" cy="194.736" r="2.45077" fill="#212730"/>
<circle cx="106.154" cy="224.385" r="2.45077" fill="#212730"/>
<circle cx="93.7616" cy="245.785" r="2.45077" fill="#212730"/>
<circle cx="134.728" cy="208.679" r="2.45077" fill="#212730"/>
<circle cx="160.211" cy="226.836" r="2.45077" fill="#212730"/>
</svg>
